<svg width="516" height="516" viewBox="0 0 516 516" fill="none" xmlns="http://www.w3.org/2000/svg">
<path d="M88.9316 298.9C92.2037 307.319 95.4871 315.738 98.1207 322.702C102.738 327.332 112.634 326.707 116.408 321.54" stroke="black" stroke-width="3" stroke-miterlimit="10" stroke-linecap="round" stroke-linejoin="round"/>
<path d="M114.8 294.026C115.484 303.314 116.168 312.613 116.863 321.901" stroke="black" stroke-width="3" stroke-miterlimit="10" stroke-linecap="round" stroke-linejoin="round"/>
<path d="M89.0117 298.333C97.0265 302.289 108.268 300.462 114.036 294.27" stroke="black" stroke-width="3" stroke-miterlimit="10" stroke-linecap="round" stroke-linejoin="round"/>
<path d="M98.2332 291.828C95.6566 287.912 93.0801 283.995 90.5035 280.088C87.9155 276.152 79.4105 277.5 78.6352 281.963C77.8713 286.437 85.5441 289.845 98.2332 291.828Z" stroke="black" stroke-width="3" stroke-miterlimit="10" stroke-linecap="round" stroke-linejoin="round"/>
<path d="M104.732 290.978C103.638 285.099 108.016 278.818 114.582 276.865C121.149 274.912 129.13 277.51 132.527 282.696C122.768 284.796 113.009 286.896 104.732 290.978Z" stroke="black" stroke-width="3" stroke-miterlimit="10" stroke-linecap="round" stroke-linejoin="round"/>
<path d="M99.0088 287.384C100.514 283.106 100.377 278.565 100.582 274.101C100.776 269.637 101.38 265.008 104.139 261.218C106.898 257.429 112.336 254.743 117.353 255.964C122.369 257.194 125.185 263.308 121.537 266.502C114.103 273.007 106.67 279.512 101.164 287.638C100.833 287.97 100.502 288.312 99.0088 287.384Z" stroke="black" stroke-width="3" stroke-miterlimit="10" stroke-linecap="round" stroke-linejoin="round"/>
<path d="M94.9393 283.429C95.6575 278.311 92.4653 273.378 88.7372 269.325C85.0091 265.272 80.5856 261.58 78.066 256.891C75.5579 252.203 75.5236 246.001 79.97 242.524C84.4163 239.047 93.5028 241.108 93.6624 246.265C94.0614 258.679 94.449 271.093 94.9393 283.429Z" stroke="black" stroke-width="3" stroke-miterlimit="10" stroke-linecap="round" stroke-linejoin="round"/>
<path d="M95.5215 282.764C98.3603 288.576 101.211 294.387 104.049 300.199" stroke="black" stroke-width="3" stroke-miterlimit="10" stroke-linecap="round" stroke-linejoin="round"/>
<path d="M100.423 287.218C101.141 290.734 101.871 294.241 102.589 297.757" stroke="black" stroke-width="3" stroke-miterlimit="10" stroke-linecap="round" stroke-linejoin="round"/>
<path d="M105.532 289.894C103.97 292.287 102.397 294.68 100.835 297.063" stroke="black" stroke-width="3" stroke-miterlimit="10" stroke-linecap="round" stroke-linejoin="round"/>
<path d="M96.5703 291.555C99.0671 294.377 101.552 297.2 104.049 300.023" stroke="black" stroke-width="3" stroke-miterlimit="10" stroke-linecap="round" stroke-linejoin="round"/>
<path d="M88.6006 297.981C95.7375 293.293 105.417 292.053 113.682 294.749C113.375 294.416 113.067 294.075 112.759 293.743" stroke="black" stroke-width="3" stroke-miterlimit="10" stroke-linecap="round" stroke-linejoin="round"/>
<path d="M404.06 272.031C394.301 269.061 384.531 266.092 376.505 263.592C369.402 263.865 363.895 270.927 366.324 276.65" stroke="black" stroke-width="3" stroke-miterlimit="10" stroke-linecap="round" stroke-linejoin="round"/>
<path d="M392.625 292.502C383.653 287.247 374.68 281.993 365.708 276.738" stroke="black" stroke-width="3" stroke-miterlimit="10" stroke-linecap="round" stroke-linejoin="round"/>
<path d="M404.528 272.441C395.955 275.42 390.71 284.132 392.865 291.838" stroke="black" stroke-width="3" stroke-miterlimit="10" stroke-linecap="round" stroke-linejoin="round"/>
<path d="M404.836 282.667C410.023 283.341 415.211 284.005 420.398 284.679C425.608 285.353 429.61 278.78 425.973 275.508C422.336 272.236 414.47 275.322 404.836 282.667Z" stroke="black" stroke-width="3" stroke-miterlimit="10" stroke-linecap="round" stroke-linejoin="round"/>
<path d="M401.621 287.58C407.709 290.451 410.787 297.278 408.552 302.914C406.318 308.55 399.01 312.349 392.146 311.441C396.217 303.559 400.287 295.686 401.621 287.58Z" stroke="black" stroke-width="3" stroke-miterlimit="10" stroke-linecap="round" stroke-linejoin="round"/>
<path d="M408.449 285.919C411.459 289.572 415.723 292.278 419.713 295.159C423.704 298.04 427.591 301.293 429.381 305.492C431.183 309.682 430.293 315.015 426.086 317.643C421.868 320.27 414.503 318.414 413.819 313.99C412.417 304.965 411.003 295.94 406.91 287.228C406.785 286.788 406.671 286.359 408.449 285.919Z" stroke="black" stroke-width="3" stroke-miterlimit="10" stroke-linecap="round" stroke-linejoin="round"/>
<path d="M414.595 285.617C418.87 289.25 425.357 290.129 431.388 290.109C437.408 290.09 443.53 289.367 449.39 290.559C455.25 291.75 460.973 295.54 461.441 300.677C461.908 305.825 454.418 310.689 449.572 307.631C437.909 300.248 426.246 292.873 414.595 285.617Z" stroke="black" stroke-width="3" stroke-miterlimit="10" stroke-linecap="round" stroke-linejoin="round"/>
<path d="M414.846 286.408C407.743 284.747 400.652 283.096 393.549 281.436" stroke="black" stroke-width="3" stroke-miterlimit="10" stroke-linecap="round" stroke-linejoin="round"/>
<path d="M407.732 286.984C404.061 285.314 400.378 283.644 396.707 281.964" stroke="black" stroke-width="3" stroke-miterlimit="10" stroke-linecap="round" stroke-linejoin="round"/>
<path d="M402.122 288.781C400.891 286.251 399.648 283.722 398.417 281.192" stroke="black" stroke-width="3" stroke-miterlimit="10" stroke-linecap="round" stroke-linejoin="round"/>
<path d="M406.113 281.71C401.986 281.651 397.848 281.602 393.721 281.544" stroke="black" stroke-width="3" stroke-miterlimit="10" stroke-linecap="round" stroke-linejoin="round"/>
<path d="M405.098 272.372C405.018 280.069 400.207 287.375 392.637 291.301C393.138 291.301 393.629 291.301 394.13 291.291" stroke="black" stroke-width="3" stroke-miterlimit="10" stroke-linecap="round" stroke-linejoin="round"/>
<path d="M309.755 179.458L292.277 188.678" stroke="black" stroke-width="3" stroke-miterlimit="10" stroke-linecap="round" stroke-linejoin="round"/>
<path d="M349.429 198.328L330.857 207.87" stroke="black" stroke-width="3" stroke-miterlimit="10" stroke-linecap="round" stroke-linejoin="round"/>
<path d="M291.627 188.502L330.983 208.232" stroke="black" stroke-width="3" stroke-miterlimit="10" stroke-linecap="round" stroke-linejoin="round"/>
<path d="M309.754 179.458L349.155 198.699" stroke="black" stroke-width="3" stroke-miterlimit="10" stroke-linecap="round" stroke-linejoin="round"/>
<path d="M2 130.632L13.9595 139.325" stroke="black" stroke-width="3" stroke-miterlimit="10" stroke-linecap="round" stroke-linejoin="round"/>
<path d="M15.624 381.178C83.6984 349.278 150.12 314.742 217.92 282.344" stroke="black" stroke-width="3" stroke-miterlimit="10" stroke-linecap="round" stroke-linejoin="round"/>
<path d="M340.433 303.07C393.218 327.849 446.506 351.866 498.346 378.091" stroke="black" stroke-width="3" stroke-miterlimit="10" stroke-linecap="round" stroke-linejoin="round"/>
<path d="M432.803 188.258V223.664" stroke="black" stroke-width="3" stroke-miterlimit="10" stroke-linecap="round" stroke-linejoin="round"/>
<path d="M462.753 203.622L462.263 238.041" stroke="black" stroke-width="3" stroke-miterlimit="10" stroke-linecap="round" stroke-linejoin="round"/>
<path d="M432.769 223.166L461.989 237.435" stroke="black" stroke-width="3" stroke-miterlimit="10" stroke-linecap="round" stroke-linejoin="round"/>
<path d="M432.769 188.659L463.015 204.315" stroke="black" stroke-width="3" stroke-miterlimit="10" stroke-linecap="round" stroke-linejoin="round"/>
<path d="M440.636 192.468L449.848 187.594" stroke="black" stroke-width="3" stroke-miterlimit="10" stroke-linecap="round" stroke-linejoin="round"/>
<path d="M457.783 201.61L449.369 187.467" stroke="black" stroke-width="3" stroke-miterlimit="10" stroke-linecap="round" stroke-linejoin="round"/>
<path d="M448.444 221.427C448.456 221.447 449.63 221.222 449.641 221.212C454.088 217.354 456.071 218.057 455.843 214.473C455.581 210.615 451.329 205.067 446.632 208.74C442.436 197.595 431.434 206.874 448.444 221.427Z" stroke="black" stroke-width="3" stroke-miterlimit="10" stroke-linecap="round" stroke-linejoin="round"/>
<path d="M382.935 117.759L382.502 174.672" stroke="black" stroke-width="3" stroke-miterlimit="10" stroke-linecap="round" stroke-linejoin="round"/>
<path d="M413.274 131.648L412.978 188.786" stroke="black" stroke-width="3" stroke-miterlimit="10" stroke-linecap="round" stroke-linejoin="round"/>
<path d="M382.046 173.91L412.452 188.366" stroke="black" stroke-width="3" stroke-miterlimit="10" stroke-linecap="round" stroke-linejoin="round"/>
<path d="M382.435 117.886L413.114 131.902" stroke="black" stroke-width="3" stroke-miterlimit="10" stroke-linecap="round" stroke-linejoin="round"/>
<path d="M390.551 168.128L390.87 131.511" stroke="black" stroke-width="3" stroke-miterlimit="10" stroke-linecap="round" stroke-linejoin="round"/>
<path d="M405.407 138.475L405.761 174.614" stroke="black" stroke-width="3" stroke-miterlimit="10" stroke-linecap="round" stroke-linejoin="round"/>
<path d="M390.153 167.874L405.761 174.614" stroke="black" stroke-width="3" stroke-miterlimit="10" stroke-linecap="round" stroke-linejoin="round"/>
<path d="M390.87 131.511L405.76 138.475" stroke="black" stroke-width="3" stroke-miterlimit="10" stroke-linecap="round" stroke-linejoin="round"/>
<path d="M333.616 125.427L346.203 131.951" stroke="black" stroke-width="3" stroke-miterlimit="10" stroke-linecap="round" stroke-linejoin="round"/>
<path d="M282.643 112.563L282.905 126.237" stroke="black" stroke-width="3" stroke-miterlimit="10" stroke-linecap="round" stroke-linejoin="round"/>
<path d="M323.423 142.949L346.156 131.765" stroke="black" stroke-width="3" stroke-miterlimit="10" stroke-linecap="round" stroke-linejoin="round"/>
<path d="M311.669 136.649L323.902 142.998" stroke="black" stroke-width="3" stroke-miterlimit="10" stroke-linecap="round" stroke-linejoin="round"/>
<path d="M281.959 112.583L307.622 124.284" stroke="black" stroke-width="3" stroke-miterlimit="10" stroke-linecap="round" stroke-linejoin="round"/>
<path d="M309.891 98.6061L282.791 112.583" stroke="black" stroke-width="3" stroke-miterlimit="10" stroke-linecap="round" stroke-linejoin="round"/>
<path d="M333.81 111.313L309.355 98.6061" stroke="black" stroke-width="3" stroke-miterlimit="10" stroke-linecap="round" stroke-linejoin="round"/>
<path d="M306.893 138.983L307.235 124.088" stroke="black" stroke-width="3" stroke-miterlimit="10" stroke-linecap="round" stroke-linejoin="round"/>
<path d="M333.17 111.235L307.609 124.098" stroke="black" stroke-width="3" stroke-miterlimit="10" stroke-linecap="round" stroke-linejoin="round"/>
<path d="M333.617 125.427L333.332 111.264" stroke="black" stroke-width="3" stroke-miterlimit="10" stroke-linecap="round" stroke-linejoin="round"/>
<path d="M282.301 126.403L307.018 139.052" stroke="black" stroke-width="3" stroke-miterlimit="10" stroke-linecap="round" stroke-linejoin="round"/>
<path d="M333.673 125.798L307.246 138.827" stroke="black" stroke-width="3" stroke-miterlimit="10" stroke-linecap="round" stroke-linejoin="round"/>
<path d="M282.643 114.116L274.981 118.482" stroke="black" stroke-width="3" stroke-miterlimit="10" stroke-linecap="round" stroke-linejoin="round"/>
<path d="M282.825 122.067L274.981 118.482" stroke="black" stroke-width="3" stroke-miterlimit="10" stroke-linecap="round" stroke-linejoin="round"/>
<path d="M306.893 131.15L333.206 118.775" stroke="black" stroke-width="3" stroke-miterlimit="10" stroke-linecap="round" stroke-linejoin="round"/>
<path d="M282.904 120.279L306.892 131.15" stroke="black" stroke-width="3" stroke-miterlimit="10" stroke-linecap="round" stroke-linejoin="round"/>
<path d="M26.0557 175.375L235.489 71.0337" stroke="black" stroke-width="3" stroke-miterlimit="10" stroke-linecap="round" stroke-linejoin="round"/>
<path d="M241.714 78.3297L241.589 72.4695" stroke="black" stroke-width="3" stroke-miterlimit="10" stroke-linecap="round" stroke-linejoin="round"/>
<path d="M235.101 71.063L241.599 72.8699" stroke="black" stroke-width="3" stroke-miterlimit="10" stroke-linecap="round" stroke-linejoin="round"/>
<path d="M26.2153 175.278L26.0557 179.712" stroke="black" stroke-width="3" stroke-miterlimit="10" stroke-linecap="round" stroke-linejoin="round"/>
<path d="M31.3905 181.91L25.7129 179.116" stroke="black" stroke-width="3" stroke-miterlimit="10" stroke-linecap="round" stroke-linejoin="round"/>
<path d="M241.714 78.3297L31.5625 181.958" stroke="black" stroke-width="3" stroke-miterlimit="10" stroke-linecap="round" stroke-linejoin="round"/>
<path d="M37.8451 304.799L37.4346 179.78" stroke="black" stroke-width="3" stroke-miterlimit="10" stroke-linecap="round" stroke-linejoin="round"/>
<path d="M50.4541 299.593L50.6814 172.533" stroke="black" stroke-width="3" stroke-miterlimit="10" stroke-linecap="round" stroke-linejoin="round"/>
<path d="M64.5791 295.032L64.7837 165.569" stroke="black" stroke-width="3" stroke-miterlimit="10" stroke-linecap="round" stroke-linejoin="round"/>
<path d="M75.7861 293.44L76.5044 159.797" stroke="black" stroke-width="3" stroke-miterlimit="10" stroke-linecap="round" stroke-linejoin="round"/>
<path d="M88.7486 240.073L88.418 154.103" stroke="black" stroke-width="3" stroke-miterlimit="10" stroke-linecap="round" stroke-linejoin="round"/>
<path d="M101.585 266.649L102.303 147.266" stroke="black" stroke-width="3" stroke-miterlimit="10" stroke-linecap="round" stroke-linejoin="round"/>
<path d="M114.63 255.358L114.231 141.601" stroke="black" stroke-width="3" stroke-miterlimit="10" stroke-linecap="round" stroke-linejoin="round"/>
<path d="M160.232 248.55L160.358 118.443" stroke="black" stroke-width="3" stroke-miterlimit="10" stroke-linecap="round" stroke-linejoin="round"/>
<path d="M172.681 245.395L172.361 112.563" stroke="black" stroke-width="3" stroke-miterlimit="10" stroke-linecap="round" stroke-linejoin="round"/>
<path d="M185.69 242.651L184.915 106.4" stroke="black" stroke-width="3" stroke-miterlimit="10" stroke-linecap="round" stroke-linejoin="round"/>
<path d="M196.954 241.899L197.866 100.276" stroke="black" stroke-width="3" stroke-miterlimit="10" stroke-linecap="round" stroke-linejoin="round"/>
<path d="M210.145 241.362L210.338 94.3672" stroke="black" stroke-width="3" stroke-miterlimit="10" stroke-linecap="round" stroke-linejoin="round"/>
<path d="M224.465 239.838C224.225 189.538 221.945 137.772 222.652 87.1493" stroke="black" stroke-width="3" stroke-miterlimit="10" stroke-linecap="round" stroke-linejoin="round"/>
<path d="M238.658 229.495C240.186 179.771 237.906 129.958 238.351 79.9901" stroke="black" stroke-width="3" stroke-miterlimit="10" stroke-linecap="round" stroke-linejoin="round"/>
<path d="M36.8643 179.644C42.1542 184.449 52.073 180.034 50.5795 173.568" stroke="black" stroke-width="3" stroke-miterlimit="10" stroke-linecap="round" stroke-linejoin="round"/>
<path d="M64.761 167.005C65.4108 173.422 56.1875 178.022 50.7607 173.1" stroke="black" stroke-width="3" stroke-miterlimit="10" stroke-linecap="round" stroke-linejoin="round"/>
<path d="M75.854 160.676C78.6472 166.282 68.8083 171.918 64.8408 166.253" stroke="black" stroke-width="3" stroke-miterlimit="10" stroke-linecap="round" stroke-linejoin="round"/>
<path d="M87.2214 154.972C91.3713 160.725 79.2864 167.269 77.1202 159.885C76.8922 160.119 76.6642 160.354 76.4248 160.588" stroke="black" stroke-width="3" stroke-miterlimit="10" stroke-linecap="round" stroke-linejoin="round"/>
<path d="M101.461 148.028C103.262 154.952 92.9669 161.965 88.418 154.103" stroke="black" stroke-width="3" stroke-miterlimit="10" stroke-linecap="round" stroke-linejoin="round"/>
<path d="M114.23 141.601C117.308 148.946 105.702 156.623 103.034 146.426" stroke="black" stroke-width="3" stroke-miterlimit="10" stroke-linecap="round" stroke-linejoin="round"/>
<path d="M172.112 113.325C173.058 118.726 165.226 122.604 160.232 119.205" stroke="black" stroke-width="3" stroke-miterlimit="10" stroke-linecap="round" stroke-linejoin="round"/>
<path d="M184.549 106.879C186.567 112.915 177.526 117.867 172.521 112.925" stroke="black" stroke-width="3" stroke-miterlimit="10" stroke-linecap="round" stroke-linejoin="round"/>
<path d="M197.695 100.784C199.792 107.172 190.33 112.524 185.097 107.084" stroke="black" stroke-width="3" stroke-miterlimit="10" stroke-linecap="round" stroke-linejoin="round"/>
<path d="M210.225 94.4648C211.923 100.716 202.928 105.892 197.832 100.52" stroke="black" stroke-width="3" stroke-miterlimit="10" stroke-linecap="round" stroke-linejoin="round"/>
<path d="M222.491 88.1163C225.193 94.9923 215.206 101.566 210.589 93.9765" stroke="black" stroke-width="3" stroke-miterlimit="10" stroke-linecap="round" stroke-linejoin="round"/>
<path d="M237.313 80.9961C238.749 87.6279 229.321 92.8924 223.449 87.9405" stroke="black" stroke-width="3" stroke-miterlimit="10" stroke-linecap="round" stroke-linejoin="round"/>
<path d="M2.06836 388.347V130.554" stroke="black" stroke-width="3" stroke-miterlimit="10" stroke-linecap="round" stroke-linejoin="round"/>
<path d="M121.525 266.493L160.471 247.886" stroke="black" stroke-width="3" stroke-miterlimit="10" stroke-linecap="round" stroke-linejoin="round"/>
<path d="M115.723 158.322L160.311 136.59" stroke="black" stroke-width="3" stroke-miterlimit="10" stroke-linecap="round" stroke-linejoin="round"/>
<path d="M251.86 513.756L2.02246 388.327" stroke="black" stroke-width="3" stroke-miterlimit="10" stroke-linecap="round" stroke-linejoin="round"/>
<path d="M259.146 2L513.829 126.931" stroke="black" stroke-width="3" stroke-miterlimit="10" stroke-linecap="round" stroke-linejoin="round"/>
<path d="M514 385.28L513.829 126.931" stroke="black" stroke-width="3" stroke-miterlimit="10" stroke-linecap="round" stroke-linejoin="round"/>
<path d="M259.146 2.0097L2.06836 130.554" stroke="black" stroke-width="3" stroke-miterlimit="10" stroke-linecap="round" stroke-linejoin="round"/>
<path d="M259.145 2C257.652 43.5589 257.754 85.1081 257.857 126.696L259.145 2Z" fill="#030303" stroke="black" stroke-width="3" stroke-miterlimit="10" stroke-linecap="round" stroke-linejoin="round"/>
<path d="M257.253 226.408C257.994 193.142 257.948 159.904 257.857 126.696L256.831 226.447C256.968 226.438 257.105 226.418 257.253 226.408Z" fill="#030303" stroke="black" stroke-width="3" stroke-miterlimit="10" stroke-linecap="round" stroke-linejoin="round"/>
<path opacity="0.9686" d="M514 385.28L251.86 513.756" stroke="black" stroke-width="3" stroke-miterlimit="10" stroke-linecap="round" stroke-linejoin="round"/>
<path d="M498.347 135.623V378.091" stroke="black" stroke-width="3" stroke-miterlimit="10" stroke-linecap="round" stroke-linejoin="round"/>
<path d="M259.089 16.6799L498.94 135.457" stroke="black" stroke-width="3" stroke-miterlimit="10" stroke-linecap="round" stroke-linejoin="round"/>
<path d="M13.3555 138.847L258.268 16.8264" stroke="black" stroke-width="3" stroke-miterlimit="10" stroke-linecap="round" stroke-linejoin="round"/>
<path d="M14.679 381.422L13.2881 139.198" stroke="black" stroke-width="3" stroke-miterlimit="10" stroke-linecap="round" stroke-linejoin="round"/>
<path d="M252.213 499.603L14.3008 381.265" stroke="black" stroke-width="3" stroke-miterlimit="10" stroke-linecap="round" stroke-linejoin="round"/>
<path d="M498.345 378.091L252.213 499.603" stroke="black" stroke-width="3" stroke-miterlimit="10" stroke-linecap="round" stroke-linejoin="round"/>
<path d="M498.347 135.623L513.829 126.931" stroke="black" stroke-width="3" stroke-miterlimit="10" stroke-linecap="round" stroke-linejoin="round"/>
<path d="M498.347 378.091L513.761 385.172" stroke="black" stroke-width="3" stroke-miterlimit="10" stroke-linecap="round" stroke-linejoin="round"/>
<path d="M252.248 498.969L251.598 514" stroke="black" stroke-width="3" stroke-miterlimit="10" stroke-linecap="round" stroke-linejoin="round"/>
<path d="M2.44434 388.278L14.7458 381.666" stroke="black" stroke-width="3" stroke-miterlimit="10" stroke-linecap="round" stroke-linejoin="round"/>
<path d="M114.207 240.033C125.733 229.68 143.279 224.514 159.799 226.594" stroke="black" stroke-width="3" stroke-miterlimit="10" stroke-linecap="round" stroke-linejoin="round"/>
<path d="M144.077 203.251C138.844 204.257 133.622 205.263 128.389 206.269C122.7 196.13 123.11 184.205 128.925 174.907C138.331 181.968 144.031 192.536 144.077 203.251Z" stroke="black" stroke-width="3" stroke-miterlimit="10" stroke-linecap="round" stroke-linejoin="round"/>
<path d="M124.65 185.631C129.006 184.967 133.372 184.302 137.727 183.638" stroke="black" stroke-width="3" stroke-miterlimit="10" stroke-linecap="round" stroke-linejoin="round"/>
<path d="M130.294 206.005C129.655 208.027 129.017 210.049 128.367 212.07" stroke="black" stroke-width="3" stroke-miterlimit="10" stroke-linecap="round" stroke-linejoin="round"/>
<path d="M142.71 203.798C144.42 205.565 146.13 207.343 147.84 209.111C147.84 209.13 147.84 209.15 147.84 209.16" stroke="black" stroke-width="3" stroke-miterlimit="10" stroke-linecap="round" stroke-linejoin="round"/>
<path d="M128.219 211.699C134.945 212.012 141.752 211.064 148.033 208.945" stroke="black" stroke-width="3" stroke-miterlimit="10" stroke-linecap="round" stroke-linejoin="round"/>
<path d="M133.817 211.953C132.859 214.346 131.913 216.749 130.955 219.142C132.517 218.185 134.079 217.218 135.584 216.563C136.462 218.78 137.328 220.988 138.206 223.205C139.095 221.369 139.996 219.523 140.828 217.794C142.219 218.712 143.61 219.64 145.001 220.558C145.024 218.985 145.047 217.413 145.286 215.626C147.076 216.055 148.854 216.485 150.644 216.915C149.333 214.219 147.064 211.885 144.214 210.302" stroke="black" stroke-width="3" stroke-miterlimit="10" stroke-linecap="round" stroke-linejoin="round"/>
<path d="M129.792 207.011C134.546 207.831 139.642 207.05 143.769 204.862" stroke="black" stroke-width="3" stroke-miterlimit="10" stroke-linecap="round" stroke-linejoin="round"/>
<path d="M129.177 209.58C134.877 210.136 140.749 209.365 146.004 207.363" stroke="black" stroke-width="3" stroke-miterlimit="10" stroke-linecap="round" stroke-linejoin="round"/>
<path d="M133.165 189.684C139.367 189.01 141.1 197.146 134.887 198.357C128.468 199.539 125.891 190.729 133.165 189.684Z" stroke="black" stroke-width="3" stroke-miterlimit="10" stroke-linecap="round" stroke-linejoin="round"/>
<path d="M144.5 202.459C148.593 202.411 152.674 202.372 156.767 202.323" stroke="black" stroke-width="3" stroke-miterlimit="10" stroke-linecap="round" stroke-linejoin="round"/>
<path d="M127.922 205.819C124.171 206.689 120.409 207.558 116.658 208.417" stroke="black" stroke-width="3" stroke-miterlimit="10" stroke-linecap="round" stroke-linejoin="round"/>
<path d="M142.688 192.985C145.652 192.722 148.65 192.771 151.614 193.112C153.439 196.15 155.251 199.187 156.893 202.381C157.03 202.274 157.167 202.157 157.303 202.059" stroke="black" stroke-width="3" stroke-miterlimit="10" stroke-linecap="round" stroke-linejoin="round"/>
<path d="M124.593 196.375C122.461 196.707 120.352 197.195 118.653 197.644C117.764 201.248 116.875 204.843 115.985 208.447C116.555 208.505 117.125 208.554 117.707 208.574" stroke="black" stroke-width="3" stroke-miterlimit="10" stroke-linecap="round" stroke-linejoin="round"/>
<path d="M206.074 266.932C213.188 256.12 220.302 245.317 227.428 234.505C244.609 224.592 266.259 223.742 284.614 229.378C315.807 268.084 343.99 307.348 368.502 348.663C353.35 348.731 338.198 348.8 323.047 348.858" stroke="black" stroke-width="3" stroke-miterlimit="10" stroke-linecap="round" stroke-linejoin="round"/>
<path d="M368.102 348.497C358.275 361.428 348.436 374.36 337.81 388.405C323.092 389.03 308.362 389.646 293.644 390.271" stroke="black" stroke-width="3" stroke-miterlimit="10" stroke-linecap="round" stroke-linejoin="round"/>
<path d="M323.549 349.62C313.984 363.304 304.407 376.997 294.842 390.681" stroke="black" stroke-width="3" stroke-miterlimit="10" stroke-linecap="round" stroke-linejoin="round"/>
<path d="M302.57 379.595C316.172 380.113 329.784 380.631 343.385 381.148" stroke="black" stroke-width="3" stroke-miterlimit="10" stroke-linecap="round" stroke-linejoin="round"/>
<path d="M206.655 266.863C236.104 307.602 265.563 348.331 295.012 389.069" stroke="black" stroke-width="3" stroke-miterlimit="10" stroke-linecap="round" stroke-linejoin="round"/>
<path d="M211.912 258.103C242.09 298.548 272.279 338.993 302.457 379.439" stroke="black" stroke-width="3" stroke-miterlimit="10" stroke-linecap="round" stroke-linejoin="round"/>
<path d="M285.676 376.646C283.749 379.781 281.811 382.916 279.862 385.807C278.573 384.039 277.285 382.281 275.985 380.513" stroke="black" stroke-width="3" stroke-miterlimit="10" stroke-linecap="round" stroke-linejoin="round"/>
<path d="M279.427 367.611C278.265 372.006 277.113 376.401 275.95 380.787C276.087 380.894 276.224 381.002 276.349 381.119" stroke="black" stroke-width="3" stroke-miterlimit="10" stroke-linecap="round" stroke-linejoin="round"/>
<path d="M215.354 279.131C211.74 279.522 208.138 279.912 204.523 280.303" stroke="black" stroke-width="3" stroke-miterlimit="10" stroke-linecap="round" stroke-linejoin="round"/>
<path d="M207.659 268.573C205.778 271.601 203.897 274.628 202.267 277.578C203.213 278.457 204.171 279.336 205.117 280.215" stroke="black" stroke-width="3" stroke-miterlimit="10" stroke-linecap="round" stroke-linejoin="round"/>
<path d="M229.697 232.972C235.078 233.558 240.14 236.498 242.796 241.127C235.831 251.119 228.876 261.111 221.91 271.103" stroke="black" stroke-width="3" stroke-miterlimit="10" stroke-linecap="round" stroke-linejoin="round"/>
<path d="M242.729 240.903C255.725 241.049 268.722 241.196 281.708 241.342" stroke="black" stroke-width="3" stroke-miterlimit="10" stroke-linecap="round" stroke-linejoin="round"/>
<path d="M254.517 254.332C259.259 249.976 262.075 243.637 268.084 240.795C267.502 241.108 266.921 241.43 266.339 241.743" stroke="black" stroke-width="3" stroke-miterlimit="10" stroke-linecap="round" stroke-linejoin="round"/>
<path d="M232.912 255.651C240.334 255.084 247.767 254.518 254.825 254.518C274.468 282.608 294.112 310.688 313.755 338.779" stroke="black" stroke-width="3" stroke-miterlimit="10" stroke-linecap="round" stroke-linejoin="round"/>
<path d="M279.588 238.832C309.549 269.589 334.506 303.705 353.511 339.863" stroke="black" stroke-width="3" stroke-miterlimit="10" stroke-linecap="round" stroke-linejoin="round"/>
<path d="M356.725 340.419C307.964 333.602 315.876 333.075 292.789 366.507C292.789 366.507 309.56 341.826 309.799 341.836C314.61 344.17 319.421 346.495 324.232 348.829" stroke="black" stroke-width="3" stroke-miterlimit="10" stroke-linecap="round" stroke-linejoin="round"/>
<path d="M205.449 385.065C208.459 395.867 194.288 408.799 180.242 408.056C167.769 400.975 166.8 385.748 178.805 374.087C190.959 369.633 203.135 376.743 205.449 385.065Z" stroke="black" stroke-width="3" stroke-miterlimit="10" stroke-linecap="round" stroke-linejoin="round"/>
<path d="M193.203 373.706C204.707 368.793 216.21 363.87 227.713 358.957" stroke="black" stroke-width="3" stroke-miterlimit="10" stroke-linecap="round" stroke-linejoin="round"/>
<path d="M199.805 376.665C209.564 372.075 219.323 367.494 229.093 362.903C228.501 361.428 227.919 359.954 227.326 358.489" stroke="black" stroke-width="3" stroke-miterlimit="10" stroke-linecap="round" stroke-linejoin="round"/>
<path d="M219.083 388.698C218.285 388.884 217.476 389.069 215.207 389.587C215.8 389.44 216.393 389.304 219.083 388.698Z" stroke="black" stroke-width="3" stroke-miterlimit="10" stroke-linecap="round" stroke-linejoin="round"/>
<path d="M198.744 402.362C209.164 402.743 219.585 403.114 229.994 403.495" stroke="black" stroke-width="3" stroke-miterlimit="10" stroke-linecap="round" stroke-linejoin="round"/>
<path d="M201.789 398.592C213.315 399.432 224.842 400.272 236.356 401.112" stroke="black" stroke-width="3" stroke-miterlimit="10" stroke-linecap="round" stroke-linejoin="round"/>
<path d="M230.062 403.661C232.126 402.782 234.19 401.893 236.253 401.014" stroke="black" stroke-width="3" stroke-miterlimit="10" stroke-linecap="round" stroke-linejoin="round"/>
<path d="M205.175 390.7C208.641 390.32 212.095 389.939 215.561 389.558L214.523 389.313" stroke="black" stroke-width="3" stroke-miterlimit="10" stroke-linecap="round" stroke-linejoin="round"/>
<path d="M204.821 386.891C209.142 386.637 214.717 385.934 219.916 385.475C219.677 386.618 219.437 387.77 219.198 388.913" stroke="black" stroke-width="3" stroke-miterlimit="10" stroke-linecap="round" stroke-linejoin="round"/>
<path d="M88.9316 298.9C92.2037 307.319 95.4871 315.738 98.1207 322.702C102.738 327.332 112.634 326.707 116.408 321.54" stroke="black" stroke-width="3" stroke-miterlimit="10" stroke-linecap="round" stroke-linejoin="round"/>
<path d="M114.8 294.026C115.484 303.314 116.168 312.613 116.863 321.901" stroke="black" stroke-width="3" stroke-miterlimit="10" stroke-linecap="round" stroke-linejoin="round"/>
<path d="M89.0117 298.333C97.0265 302.289 108.268 300.462 114.036 294.27" stroke="black" stroke-width="3" stroke-miterlimit="10" stroke-linecap="round" stroke-linejoin="round"/>
<path d="M98.2332 291.828C95.6566 287.912 93.0801 283.995 90.5035 280.088C87.9155 276.152 79.4105 277.5 78.6352 281.963C77.8713 286.437 85.5441 289.845 98.2332 291.828Z" stroke="black" stroke-width="3" stroke-miterlimit="10" stroke-linecap="round" stroke-linejoin="round"/>
<path d="M104.732 290.978C103.638 285.099 108.016 278.818 114.582 276.865C121.149 274.912 129.13 277.51 132.527 282.696C122.768 284.796 113.009 286.896 104.732 290.978Z" stroke="black" stroke-width="3" stroke-miterlimit="10" stroke-linecap="round" stroke-linejoin="round"/>
<path d="M99.0088 287.384C100.514 283.106 100.377 278.565 100.582 274.101C100.776 269.637 101.38 265.008 104.139 261.218C106.898 257.429 112.336 254.743 117.353 255.964C122.369 257.194 125.185 263.308 121.537 266.502C114.103 273.007 106.67 279.512 101.164 287.638C100.833 287.97 100.502 288.312 99.0088 287.384Z" stroke="black" stroke-width="3" stroke-miterlimit="10" stroke-linecap="round" stroke-linejoin="round"/>
<path d="M94.9393 283.429C95.6575 278.311 92.4653 273.378 88.7372 269.325C85.0091 265.272 80.5856 261.58 78.066 256.891C75.5579 252.203 75.5236 246.001 79.97 242.524C84.4163 239.047 93.5028 241.108 93.6624 246.265C94.0614 258.679 94.449 271.093 94.9393 283.429Z" stroke="black" stroke-width="3" stroke-miterlimit="10" stroke-linecap="round" stroke-linejoin="round"/>
<path d="M95.5215 282.764C98.3603 288.576 101.211 294.387 104.049 300.199" stroke="black" stroke-width="3" stroke-miterlimit="10" stroke-linecap="round" stroke-linejoin="round"/>
<path d="M100.423 287.218C101.141 290.734 101.871 294.241 102.589 297.757" stroke="black" stroke-width="3" stroke-miterlimit="10" stroke-linecap="round" stroke-linejoin="round"/>
<path d="M105.532 289.894C103.97 292.287 102.397 294.68 100.835 297.063" stroke="black" stroke-width="3" stroke-miterlimit="10" stroke-linecap="round" stroke-linejoin="round"/>
<path d="M96.5703 291.555C99.0671 294.377 101.552 297.2 104.049 300.023" stroke="black" stroke-width="3" stroke-miterlimit="10" stroke-linecap="round" stroke-linejoin="round"/>
<path d="M88.6006 297.981C95.7375 293.293 105.417 292.053 113.682 294.749C113.375 294.416 113.067 294.075 112.759 293.743" stroke="black" stroke-width="3" stroke-miterlimit="10" stroke-linecap="round" stroke-linejoin="round"/>
<path d="M309.755 179.458L292.277 188.678" stroke="black" stroke-miterlimit="10"/>
<path d="M349.429 198.328L330.857 207.87" stroke="black" stroke-miterlimit="10"/>
<path d="M291.627 188.502L330.983 208.232" stroke="black" stroke-miterlimit="10"/>
<path d="M309.754 179.458L349.155 198.699" stroke="black" stroke-miterlimit="10"/>
<path d="M2 130.632L13.9595 139.325" stroke="#030303" stroke-miterlimit="10"/>
<path d="M15.624 381.178C83.6984 349.278 150.12 314.742 217.92 282.344" stroke="black" stroke-miterlimit="10"/>
<path d="M340.433 303.07C393.218 327.849 446.506 351.866 498.346 378.091" stroke="black" stroke-miterlimit="10"/>
<path d="M432.803 188.258V223.664" stroke="black" stroke-miterlimit="10"/>
<path d="M462.753 203.622L462.263 238.041" stroke="black" stroke-miterlimit="10"/>
<path d="M432.769 223.166L461.989 237.435" stroke="black" stroke-miterlimit="10"/>
<path d="M432.769 188.659L463.015 204.315" stroke="black" stroke-miterlimit="10"/>
<path d="M440.636 192.468L449.848 187.594" stroke="black" stroke-miterlimit="10"/>
<path d="M457.783 201.61L449.369 187.467" stroke="black" stroke-miterlimit="10"/>
<path d="M448.444 221.427C448.456 221.447 449.63 221.222 449.641 221.212C454.088 217.354 456.071 218.057 455.843 214.473C455.581 210.615 451.329 205.067 446.632 208.74C442.436 197.595 431.434 206.874 448.444 221.427Z" stroke="black" stroke-miterlimit="10"/>
<path d="M382.935 117.759L382.502 174.672" stroke="black" stroke-miterlimit="10"/>
<path d="M413.274 131.648L412.978 188.786" stroke="black" stroke-miterlimit="10"/>
<path d="M382.046 173.91L412.452 188.366" stroke="black" stroke-miterlimit="10"/>
<path d="M382.435 117.886L413.114 131.902" stroke="black" stroke-miterlimit="10"/>
<path d="M390.551 168.128L390.87 131.511" stroke="black" stroke-miterlimit="10"/>
<path d="M405.407 138.475L405.761 174.614" stroke="black" stroke-miterlimit="10"/>
<path d="M390.153 167.874L405.761 174.614" stroke="black" stroke-miterlimit="10"/>
<path d="M390.87 131.511L405.76 138.475" stroke="black" stroke-miterlimit="10"/>
<path d="M333.616 125.427L346.203 131.951" stroke="black" stroke-miterlimit="10"/>
<path d="M282.643 112.563L282.905 126.237" stroke="black" stroke-miterlimit="10"/>
<path d="M323.423 142.949L346.156 131.765" stroke="black" stroke-miterlimit="10"/>
<path d="M311.669 136.649L323.902 142.998" stroke="black" stroke-miterlimit="10"/>
<path d="M281.959 112.583L307.622 124.284" stroke="black" stroke-miterlimit="10"/>
<path d="M309.891 98.6061L282.791 112.583" stroke="black" stroke-miterlimit="10"/>
<path d="M333.81 111.313L309.355 98.6061" stroke="black" stroke-miterlimit="10"/>
<path d="M306.893 138.983L307.235 124.088" stroke="black" stroke-miterlimit="10"/>
<path d="M333.17 111.235L307.609 124.098" stroke="black" stroke-miterlimit="10"/>
<path d="M333.617 125.427L333.332 111.264" stroke="black" stroke-miterlimit="10"/>
<path d="M282.301 126.403L307.018 139.052" stroke="black" stroke-miterlimit="10"/>
<path d="M333.673 125.798L307.246 138.827" stroke="black" stroke-miterlimit="10"/>
<path d="M282.643 114.116L274.981 118.482" stroke="black" stroke-miterlimit="10"/>
<path d="M282.825 122.067L274.981 118.482" stroke="black" stroke-miterlimit="10"/>
<path d="M306.893 131.15L333.206 118.775" stroke="black" stroke-miterlimit="10"/>
<path d="M282.904 120.279L306.892 131.15" stroke="black" stroke-miterlimit="10"/>
<path d="M26.0557 175.375L235.489 71.0337" stroke="black" stroke-miterlimit="10"/>
<path d="M241.714 78.3297L241.589 72.4695" stroke="black" stroke-miterlimit="10"/>
<path d="M235.101 71.063L241.599 72.8699" stroke="black" stroke-miterlimit="10"/>
<path d="M26.2153 175.278L26.0557 179.712" stroke="black" stroke-miterlimit="10"/>
<path d="M31.3905 181.91L25.7129 179.116" stroke="black" stroke-miterlimit="10"/>
<path d="M241.714 78.3297L31.5625 181.958" stroke="black" stroke-miterlimit="10"/>
<path d="M37.8451 304.799L37.4346 179.78" stroke="black" stroke-miterlimit="10"/>
<path d="M50.4541 299.593L50.6814 172.533" stroke="black" stroke-miterlimit="10"/>
<path d="M64.5791 295.032L64.7837 165.569" stroke="black" stroke-miterlimit="10"/>
<path d="M75.7861 293.44L76.5044 159.797" stroke="black" stroke-miterlimit="10"/>
<path d="M88.7486 240.073L88.418 154.103" stroke="black" stroke-miterlimit="10"/>
<path d="M101.585 266.649L102.303 147.266" stroke="black" stroke-miterlimit="10"/>
<path d="M114.63 255.358L114.231 141.601" stroke="black" stroke-miterlimit="10"/>
<path d="M160.232 248.55L160.358 118.443" stroke="black" stroke-miterlimit="10"/>
<path d="M172.681 245.395L172.361 112.563" stroke="black" stroke-miterlimit="10"/>
<path d="M185.69 242.651L184.915 106.4" stroke="black" stroke-miterlimit="10"/>
<path d="M196.954 241.899L197.866 100.276" stroke="black" stroke-miterlimit="10"/>
<path d="M210.145 241.362L210.338 94.3672" stroke="black" stroke-miterlimit="10"/>
<path d="M224.465 239.838C224.225 189.538 221.945 137.772 222.652 87.1493" stroke="black" stroke-miterlimit="10"/>
<path d="M238.658 229.495C240.186 179.771 237.906 129.958 238.351 79.9901" stroke="black" stroke-miterlimit="10"/>
<path d="M36.8643 179.644C42.1542 184.449 52.073 180.034 50.5795 173.568" stroke="black" stroke-miterlimit="10"/>
<path d="M64.761 167.005C65.4108 173.422 56.1875 178.022 50.7607 173.1" stroke="black" stroke-miterlimit="10"/>
<path d="M75.854 160.676C78.6472 166.282 68.8083 171.918 64.8408 166.253" stroke="black" stroke-miterlimit="10"/>
<path d="M87.2214 154.972C91.3713 160.725 79.2864 167.269 77.1202 159.885C76.8922 160.119 76.6642 160.354 76.4248 160.588" stroke="black" stroke-miterlimit="10"/>
<path d="M101.461 148.028C103.262 154.952 92.9669 161.965 88.418 154.103" stroke="black" stroke-miterlimit="10"/>
<path d="M114.23 141.601C117.308 148.946 105.702 156.623 103.034 146.426" stroke="black" stroke-miterlimit="10"/>
<path d="M172.112 113.325C173.058 118.726 165.226 122.604 160.232 119.205" stroke="black" stroke-miterlimit="10"/>
<path d="M184.549 106.879C186.567 112.915 177.526 117.867 172.521 112.925" stroke="black" stroke-miterlimit="10"/>
<path d="M197.695 100.784C199.792 107.172 190.33 112.524 185.097 107.084" stroke="black" stroke-miterlimit="10"/>
<path d="M210.225 94.4648C211.923 100.716 202.928 105.892 197.832 100.52" stroke="black" stroke-miterlimit="10"/>
<path d="M222.491 88.1163C225.193 94.9923 215.206 101.566 210.589 93.9765" stroke="black" stroke-miterlimit="10"/>
<path d="M237.313 80.9961C238.749 87.6279 229.321 92.8924 223.449 87.9405" stroke="black" stroke-miterlimit="10"/>
<path d="M2.06836 388.347V130.554" stroke="black" stroke-miterlimit="10"/>
<path d="M121.525 266.493L160.471 247.886" stroke="black" stroke-miterlimit="10"/>
<path d="M115.723 158.322L160.311 136.59" stroke="black" stroke-miterlimit="10"/>
<path d="M251.86 513.756L2.02246 388.327" stroke="#030303" stroke-miterlimit="10"/>
<path d="M259.146 2L513.829 126.931" stroke="#030303" stroke-miterlimit="10"/>
<path d="M514 385.28L513.829 126.931" stroke="#030303" stroke-miterlimit="10"/>
<path d="M259.146 2.0097L2.06836 130.554" stroke="black" stroke-miterlimit="10"/>
<path d="M259.145 2C257.652 43.5589 257.754 85.1081 257.857 126.696L259.145 2Z" fill="#030303" stroke="black" stroke-miterlimit="10"/>
<path d="M257.253 226.408C257.994 193.142 257.948 159.904 257.857 126.696L256.831 226.447C256.968 226.438 257.105 226.418 257.253 226.408Z" fill="#030303" stroke="black" stroke-miterlimit="10"/>
<path opacity="0.9686" d="M514 385.28L251.86 513.756" stroke="#030303" stroke-miterlimit="10"/>
<path d="M498.347 135.623V378.091" stroke="black" stroke-miterlimit="10"/>
<path d="M259.089 16.6799L498.94 135.457" stroke="black" stroke-miterlimit="10"/>
<path d="M13.3555 138.847L258.268 16.8264" stroke="black" stroke-miterlimit="10"/>
<path d="M14.679 381.422L13.2881 139.198" stroke="black" stroke-miterlimit="10"/>
<path d="M252.213 499.603L14.3008 381.265" stroke="black" stroke-miterlimit="10"/>
<path d="M498.345 378.091L252.213 499.603" stroke="black" stroke-miterlimit="10"/>
<path d="M498.347 135.623L513.829 126.931" stroke="black" stroke-miterlimit="10"/>
<path d="M498.347 378.091L513.761 385.172" stroke="black" stroke-miterlimit="10"/>
<path d="M252.248 498.969L251.598 514" stroke="black" stroke-miterlimit="10"/>
<path d="M2.44434 388.278L14.7458 381.666" stroke="black" stroke-miterlimit="10"/>
<path d="M114.207 240.033C125.733 229.68 143.279 224.514 159.799 226.594" stroke="black" stroke-miterlimit="10"/>
<path d="M144.078 203.251C138.845 204.257 133.623 205.263 128.39 206.269C122.701 196.13 123.111 184.205 128.926 174.907C138.332 181.968 144.032 192.536 144.078 203.251Z" stroke="black" stroke-miterlimit="10"/>
<path d="M124.649 185.631C129.005 184.967 133.371 184.302 137.726 183.638" stroke="black" stroke-miterlimit="10"/>
<path d="M130.294 206.005C129.655 208.027 129.017 210.049 128.367 212.07" stroke="black" stroke-miterlimit="10"/>
<path d="M142.709 203.798C144.419 205.566 146.129 207.343 147.839 209.111C147.839 209.13 147.839 209.15 147.839 209.16" stroke="black" stroke-miterlimit="10"/>
<path d="M128.219 211.699C134.945 212.012 141.752 211.064 148.033 208.945" stroke="black" stroke-miterlimit="10"/>
<path d="M133.817 211.953C132.859 214.346 131.913 216.749 130.955 219.142C132.517 218.184 134.079 217.218 135.584 216.563C136.462 218.78 137.328 220.988 138.206 223.205C139.095 221.369 139.996 219.523 140.828 217.794C142.219 218.712 143.61 219.64 145.001 220.558C145.024 218.985 145.047 217.413 145.286 215.625C147.076 216.055 148.854 216.485 150.644 216.915C149.333 214.219 147.064 211.885 144.214 210.302" stroke="black" stroke-miterlimit="10"/>
<path d="M136.599 211.543C136.747 212.5 136.895 213.457 137.032 214.414C137.762 214.014 138.491 213.604 139.232 213.203C139.745 213.565 140.258 213.936 140.771 214.297C141.102 213.731 141.444 213.174 141.775 212.608C142.174 212.822 142.561 213.047 142.96 213.262C142.561 212.461 142.162 211.66 141.763 210.859" stroke="black" stroke-miterlimit="10"/>
<path d="M129.793 207.011C134.547 207.831 139.643 207.05 143.77 204.862" stroke="black" stroke-miterlimit="10"/>
<path d="M129.177 209.58C134.877 210.136 140.749 209.365 146.004 207.363" stroke="black" stroke-miterlimit="10"/>
<path d="M133.166 189.684C139.368 189.01 141.101 197.146 134.888 198.357C128.469 199.539 125.892 190.729 133.166 189.684Z" stroke="black" stroke-miterlimit="10"/>
<path d="M144.499 202.459C148.592 202.411 152.673 202.372 156.766 202.323" stroke="black" stroke-miterlimit="10"/>
<path d="M127.922 205.819C124.171 206.689 120.409 207.558 116.658 208.417" stroke="black" stroke-miterlimit="10"/>
<path d="M142.686 192.985C145.65 192.722 148.648 192.771 151.612 193.112C153.437 196.15 155.249 199.188 156.891 202.381C157.028 202.274 157.165 202.157 157.301 202.059" stroke="black" stroke-miterlimit="10"/>
<path d="M124.593 196.375C122.461 196.707 120.352 197.195 118.653 197.644C117.764 201.248 116.875 204.843 115.985 208.447C116.555 208.505 117.125 208.554 117.707 208.574" stroke="black" stroke-miterlimit="10"/>
<path d="M206.075 266.932C213.189 256.12 220.303 245.317 227.429 234.505C244.61 224.592 266.26 223.742 284.615 229.378C315.808 268.084 343.991 307.348 368.503 348.663C353.351 348.731 338.199 348.8 323.048 348.858" stroke="black" stroke-miterlimit="10"/>
<path d="M368.104 348.497C358.277 361.428 348.438 374.36 337.812 388.405C323.094 389.03 308.364 389.646 293.646 390.271" stroke="black" stroke-miterlimit="10"/>
<path d="M323.549 349.62C313.984 363.304 304.407 376.997 294.842 390.681" stroke="black" stroke-miterlimit="10"/>
<path d="M302.571 379.595C316.172 380.113 329.785 380.631 343.386 381.148" stroke="black" stroke-miterlimit="10"/>
<path d="M206.656 266.864C236.105 307.602 265.564 348.331 295.013 389.069" stroke="black" stroke-miterlimit="10"/>
<path d="M211.912 258.103C242.09 298.548 272.279 338.993 302.457 379.439" stroke="black" stroke-miterlimit="10"/>
<path d="M285.677 376.646C283.75 379.781 281.812 382.916 279.863 385.807C278.574 384.039 277.286 382.281 275.986 380.513" stroke="black" stroke-miterlimit="10"/>
<path d="M279.428 367.611C278.266 372.006 277.114 376.401 275.951 380.787C276.088 380.894 276.225 381.002 276.35 381.119" stroke="black" stroke-miterlimit="10"/>
<path d="M215.356 279.131C211.742 279.522 208.139 279.912 204.525 280.303" stroke="black" stroke-miterlimit="10"/>
<path d="M207.66 268.573C205.779 271.601 203.898 274.628 202.268 277.578C203.214 278.457 204.172 279.336 205.118 280.215" stroke="black" stroke-miterlimit="10"/>
<path d="M229.699 232.972C235.08 233.558 240.142 236.498 242.798 241.127C235.833 251.119 228.878 261.111 221.912 271.102" stroke="black" stroke-miterlimit="10"/>
<path d="M242.729 240.903C255.725 241.049 268.722 241.196 281.708 241.342" stroke="black" stroke-miterlimit="10"/>
<path d="M254.518 254.332C259.26 249.976 262.076 243.638 268.085 240.795C267.503 241.108 266.922 241.43 266.34 241.743" stroke="black" stroke-miterlimit="10"/>
<path d="M232.912 255.651C240.334 255.085 247.767 254.518 254.825 254.518C274.468 282.608 294.112 310.689 313.755 338.779" stroke="black" stroke-miterlimit="10"/>
<path d="M279.589 238.832C309.55 269.589 334.507 303.705 353.512 339.863" stroke="black" stroke-miterlimit="10"/>
<path d="M356.728 340.419C307.966 333.602 315.879 333.075 292.792 366.507C292.792 366.507 309.563 341.826 309.802 341.836C314.613 344.17 319.424 346.495 324.235 348.829" stroke="black" stroke-miterlimit="10"/>
<path d="M205.448 385.065C208.458 395.867 194.287 408.799 180.241 408.056C167.768 400.975 166.799 385.748 178.804 374.087C190.958 369.633 203.134 376.743 205.448 385.065Z" stroke="black" stroke-miterlimit="10"/>
<path d="M193.203 373.706C204.707 368.793 216.21 363.87 227.713 358.957" stroke="black" stroke-miterlimit="10"/>
<path d="M199.804 376.665C209.563 372.075 219.322 367.494 229.092 362.903C228.5 361.428 227.918 359.954 227.325 358.489" stroke="black" stroke-miterlimit="10"/>
<path d="M219.083 388.698C218.285 388.884 217.476 389.069 215.207 389.587C215.8 389.44 216.393 389.304 219.083 388.698Z" stroke="black" stroke-miterlimit="10"/>
<path d="M198.744 402.362C209.164 402.743 219.585 403.114 229.994 403.495" stroke="black" stroke-miterlimit="10"/>
<path d="M201.788 398.592C213.314 399.432 224.841 400.272 236.355 401.112" stroke="black" stroke-miterlimit="10"/>
<path d="M230.062 403.661C232.125 402.782 234.189 401.893 236.252 401.014" stroke="black" stroke-miterlimit="10"/>
<path d="M205.174 390.7C208.64 390.32 212.094 389.939 215.56 389.558L214.523 389.313" stroke="black" stroke-miterlimit="10"/>
<path d="M204.821 386.891C209.142 386.637 214.717 385.934 219.916 385.475C219.677 386.618 219.437 387.77 219.198 388.913" stroke="black" stroke-miterlimit="10"/>
<path d="M88.9316 298.9C92.2037 307.319 95.4871 315.738 98.1207 322.702C102.738 327.332 112.634 326.707 116.408 321.54" stroke="black" stroke-miterlimit="10"/>
<path d="M114.8 294.026C115.484 303.314 116.168 312.613 116.863 321.901" stroke="black" stroke-miterlimit="10"/>
<path d="M89.0117 298.333C97.0265 302.289 108.268 300.462 114.036 294.27" stroke="black" stroke-miterlimit="10"/>
<path d="M98.2332 291.828C95.6566 287.912 93.0801 283.995 90.5035 280.088C87.9155 276.152 79.4105 277.5 78.6352 281.964C77.8713 286.437 85.5441 289.846 98.2332 291.828Z" stroke="black" stroke-miterlimit="10"/>
<path d="M104.732 290.979C103.638 285.099 108.016 278.819 114.582 276.865C121.149 274.912 129.13 277.51 132.527 282.696C122.768 284.796 113.009 286.896 104.732 290.979Z" stroke="black" stroke-miterlimit="10"/>
<path d="M99.0088 287.384C100.514 283.106 100.377 278.565 100.582 274.101C100.776 269.638 101.38 265.008 104.139 261.218C106.898 257.429 112.336 254.743 117.353 255.964C122.369 257.194 125.185 263.308 121.537 266.502C114.103 273.007 106.67 279.512 101.164 287.638C100.833 287.97 100.502 288.312 99.0088 287.384Z" stroke="black" stroke-miterlimit="10"/>
<path d="M94.9393 283.429C95.6575 278.311 92.4653 273.378 88.7372 269.325C85.0091 265.272 80.5856 261.58 78.066 256.891C75.5579 252.203 75.5236 246.001 79.97 242.524C84.4163 239.047 93.5028 241.108 93.6624 246.265C94.0614 258.679 94.449 271.093 94.9393 283.429Z" stroke="black" stroke-miterlimit="10"/>
<path d="M95.5215 282.764C98.3603 288.576 101.211 294.387 104.049 300.199" stroke="black" stroke-miterlimit="10"/>
<path d="M100.423 287.218C101.141 290.734 101.871 294.241 102.589 297.757" stroke="black" stroke-miterlimit="10"/>
<path d="M105.532 289.894C103.97 292.287 102.397 294.68 100.835 297.063" stroke="black" stroke-miterlimit="10"/>
<path d="M96.5703 291.555C99.0671 294.377 101.552 297.2 104.049 300.023" stroke="black" stroke-miterlimit="10"/>
<path d="M88.6006 297.982C95.7375 293.293 105.417 292.053 113.682 294.749C113.375 294.417 113.067 294.075 112.759 293.743" stroke="black" stroke-miterlimit="10"/>
<path d="M404.06 272.031C394.301 269.061 384.531 266.092 376.505 263.592C369.402 263.865 363.895 270.927 366.324 276.65" stroke="black" stroke-miterlimit="10"/>
<path d="M392.625 292.502C383.653 287.248 374.68 281.993 365.708 276.738" stroke="black" stroke-miterlimit="10"/>
<path d="M404.528 272.441C395.955 275.42 390.71 284.132 392.865 291.838" stroke="black" stroke-miterlimit="10"/>
<path d="M404.836 282.667C410.023 283.341 415.211 284.005 420.398 284.679C425.608 285.353 429.61 278.78 425.973 275.508C422.336 272.236 414.47 275.322 404.836 282.667Z" stroke="black" stroke-miterlimit="10"/>
<path d="M401.621 287.58C407.709 290.451 410.787 297.278 408.552 302.914C406.318 308.55 399.01 312.349 392.146 311.441C396.217 303.559 400.287 295.686 401.621 287.58Z" stroke="black" stroke-miterlimit="10"/>
<path d="M408.449 285.919C411.459 289.572 415.723 292.278 419.713 295.159C423.704 298.04 427.591 301.293 429.381 305.493C431.183 309.683 430.293 315.015 426.086 317.643C421.868 320.27 414.503 318.414 413.819 313.99C412.417 304.965 411.003 295.94 406.91 287.228C406.785 286.789 406.671 286.359 408.449 285.919Z" stroke="black" stroke-miterlimit="10"/>
<path d="M414.595 285.617C418.87 289.25 425.357 290.129 431.388 290.109C437.408 290.09 443.53 289.367 449.39 290.559C455.25 291.75 460.973 295.54 461.441 300.677C461.908 305.825 454.418 310.689 449.572 307.631C437.909 300.248 426.246 292.873 414.595 285.617Z" stroke="black" stroke-miterlimit="10"/>
<path d="M414.846 286.408C407.743 284.747 400.652 283.097 393.549 281.436" stroke="black" stroke-miterlimit="10"/>
<path d="M407.732 286.984C404.061 285.314 400.378 283.644 396.707 281.964" stroke="black" stroke-miterlimit="10"/>
<path d="M402.122 288.781C400.891 286.251 399.648 283.722 398.417 281.192" stroke="black" stroke-miterlimit="10"/>
<path d="M406.113 281.71C401.986 281.651 397.848 281.602 393.721 281.544" stroke="black" stroke-miterlimit="10"/>
<path d="M405.098 272.372C405.018 280.069 400.207 287.375 392.637 291.301C393.138 291.301 393.629 291.301 394.13 291.291" stroke="black" stroke-miterlimit="10"/>
</svg>
