<svg width="204" height="204" viewBox="0 0 204 204" fill="none" xmlns="http://www.w3.org/2000/svg">
<path d="M35.9575 117.976C37.2357 121.265 38.5183 124.554 39.547 127.274C41.3506 129.083 45.2162 128.838 46.6903 126.82" stroke="#F8F9FA" stroke-width="3" stroke-miterlimit="10" stroke-linecap="round" stroke-linejoin="round"/>
<path d="M46.0625 116.073C46.3297 119.701 46.5969 123.333 46.8686 126.961" stroke="#F8F9FA" stroke-width="3" stroke-miterlimit="10" stroke-linecap="round" stroke-linejoin="round"/>
<path d="M35.9888 117.755C39.1195 119.3 43.5106 118.587 45.7641 116.168" stroke="#F8F9FA" stroke-width="3" stroke-miterlimit="10" stroke-linecap="round" stroke-linejoin="round"/>
<path d="M39.5914 115.214C38.5849 113.684 37.5784 112.154 36.572 110.628C35.561 109.091 32.2387 109.617 31.9359 111.361C31.6375 113.108 34.6347 114.44 39.5914 115.214Z" stroke="#F8F9FA" stroke-width="3" stroke-miterlimit="10" stroke-linecap="round" stroke-linejoin="round"/>
<path d="M42.1299 114.882C41.7024 112.585 43.4125 110.132 45.9777 109.369C48.5429 108.606 51.6603 109.621 52.9874 111.647C49.1753 112.467 45.3631 113.287 42.1299 114.882Z" stroke="#F8F9FA" stroke-width="3" stroke-miterlimit="10" stroke-linecap="round" stroke-linejoin="round"/>
<path d="M39.894 113.478C40.4819 111.807 40.4285 110.033 40.5086 108.289C40.5843 106.546 40.8204 104.737 41.8981 103.257C42.9758 101.777 45.1001 100.728 47.0597 101.205C49.0192 101.685 50.1192 104.074 48.6941 105.321C45.7904 107.862 42.8868 110.403 40.7358 113.577C40.6066 113.707 40.4774 113.841 39.894 113.478Z" stroke="#F8F9FA" stroke-width="3" stroke-miterlimit="10" stroke-linecap="round" stroke-linejoin="round"/>
<path d="M38.3045 111.933C38.585 109.934 37.3381 108.007 35.8818 106.424C34.4255 104.84 32.6976 103.398 31.7134 101.567C30.7336 99.7356 30.7202 97.3129 32.4571 95.9547C34.1939 94.5965 37.7433 95.4015 37.8057 97.4159C37.9616 102.265 38.113 107.114 38.3045 111.933Z" stroke="#F8F9FA" stroke-width="3" stroke-miterlimit="10" stroke-linecap="round" stroke-linejoin="round"/>
<path d="M38.5317 111.674C39.6406 113.944 40.754 116.214 41.8629 118.484" stroke="#F8F9FA" stroke-width="3" stroke-miterlimit="10" stroke-linecap="round" stroke-linejoin="round"/>
<path d="M40.4463 113.413C40.7269 114.787 41.0119 116.157 41.2925 117.53" stroke="#F8F9FA" stroke-width="3" stroke-miterlimit="10" stroke-linecap="round" stroke-linejoin="round"/>
<path d="M42.4422 114.459C41.8321 115.393 41.2175 116.328 40.6074 117.259" stroke="#F8F9FA" stroke-width="3" stroke-miterlimit="10" stroke-linecap="round" stroke-linejoin="round"/>
<path d="M38.9414 115.107C39.9167 116.21 40.8876 117.313 41.8629 118.415" stroke="#F8F9FA" stroke-width="3" stroke-miterlimit="10" stroke-linecap="round" stroke-linejoin="round"/>
<path d="M35.8286 117.618C38.6165 115.786 42.3975 115.302 45.6262 116.355C45.506 116.225 45.3857 116.092 45.2655 115.962" stroke="#F8F9FA" stroke-width="3" stroke-miterlimit="10" stroke-linecap="round" stroke-linejoin="round"/>
<path d="M159.055 107.481C155.243 106.321 151.427 105.161 148.291 104.184C145.517 104.291 143.366 107.05 144.314 109.285" stroke="#F8F9FA" stroke-width="3" stroke-miterlimit="10" stroke-linecap="round" stroke-linejoin="round"/>
<path d="M154.588 115.477C151.083 113.425 147.579 111.372 144.074 109.32" stroke="#F8F9FA" stroke-width="3" stroke-miterlimit="10" stroke-linecap="round" stroke-linejoin="round"/>
<path d="M159.238 107.641C155.889 108.805 153.84 112.208 154.682 115.218" stroke="#F8F9FA" stroke-width="3" stroke-miterlimit="10" stroke-linecap="round" stroke-linejoin="round"/>
<path d="M159.358 111.635C161.384 111.899 163.411 112.158 165.437 112.421C167.472 112.685 169.035 110.117 167.615 108.839C166.194 107.561 163.121 108.766 159.358 111.635Z" stroke="#F8F9FA" stroke-width="3" stroke-miterlimit="10" stroke-linecap="round" stroke-linejoin="round"/>
<path d="M158.102 113.555C160.48 114.676 161.683 117.343 160.81 119.545C159.937 121.746 157.082 123.23 154.401 122.875C155.991 119.796 157.581 116.721 158.102 113.555Z" stroke="#F8F9FA" stroke-width="3" stroke-miterlimit="10" stroke-linecap="round" stroke-linejoin="round"/>
<path d="M160.77 112.906C161.945 114.333 163.611 115.39 165.17 116.515C166.728 117.641 168.247 118.911 168.946 120.552C169.65 122.188 169.302 124.272 167.659 125.298C166.011 126.324 163.134 125.599 162.867 123.871C162.319 120.346 161.767 116.82 160.168 113.417C160.119 113.245 160.075 113.078 160.77 112.906Z" stroke="#F8F9FA" stroke-width="3" stroke-miterlimit="10" stroke-linecap="round" stroke-linejoin="round"/>
<path d="M163.17 112.788C164.84 114.207 167.374 114.55 169.73 114.543C172.081 114.535 174.473 114.253 176.762 114.718C179.051 115.184 181.287 116.664 181.469 118.671C181.652 120.681 178.726 122.581 176.833 121.387C172.277 118.503 167.721 115.622 163.17 112.788Z" stroke="#F8F9FA" stroke-width="3" stroke-miterlimit="10" stroke-linecap="round" stroke-linejoin="round"/>
<path d="M163.268 113.097C160.494 112.448 157.724 111.803 154.949 111.155" stroke="#F8F9FA" stroke-width="3" stroke-miterlimit="10" stroke-linecap="round" stroke-linejoin="round"/>
<path d="M160.489 113.322C159.055 112.669 157.617 112.017 156.183 111.361" stroke="#F8F9FA" stroke-width="3" stroke-miterlimit="10" stroke-linecap="round" stroke-linejoin="round"/>
<path d="M158.298 114.024C157.817 113.036 157.332 112.047 156.851 111.059" stroke="#F8F9FA" stroke-width="3" stroke-miterlimit="10" stroke-linecap="round" stroke-linejoin="round"/>
<path d="M159.857 111.262C158.245 111.239 156.628 111.22 155.016 111.197" stroke="#F8F9FA" stroke-width="3" stroke-miterlimit="10" stroke-linecap="round" stroke-linejoin="round"/>
<path d="M159.46 107.614C159.429 110.621 157.55 113.474 154.593 115.008C154.789 115.008 154.98 115.008 155.176 115.004" stroke="#F8F9FA" stroke-width="3" stroke-miterlimit="10" stroke-linecap="round" stroke-linejoin="round"/>
<path d="M122.217 71.3195L115.39 74.9211" stroke="#F8F9FA" stroke-width="3" stroke-miterlimit="10" stroke-linecap="round" stroke-linejoin="round"/>
<path d="M137.715 78.6906L130.46 82.4181" stroke="#F8F9FA" stroke-width="3" stroke-miterlimit="10" stroke-linecap="round" stroke-linejoin="round"/>
<path d="M115.135 74.8525L130.509 82.5593" stroke="#F8F9FA" stroke-width="3" stroke-miterlimit="10" stroke-linecap="round" stroke-linejoin="round"/>
<path d="M122.216 71.3195L137.607 78.8356" stroke="#F8F9FA" stroke-width="3" stroke-miterlimit="10" stroke-linecap="round" stroke-linejoin="round"/>
<path d="M2 52.247L6.67168 55.6426" stroke="#F8F9FA" stroke-width="3" stroke-miterlimit="10" stroke-linecap="round" stroke-linejoin="round"/>
<path d="M7.32178 150.116C33.9133 137.656 59.8591 124.165 86.3437 111.51" stroke="#F8F9FA" stroke-width="3" stroke-miterlimit="10" stroke-linecap="round" stroke-linejoin="round"/>
<path d="M134.2 119.605C154.82 129.285 175.635 138.667 195.885 148.911" stroke="#F8F9FA" stroke-width="3" stroke-miterlimit="10" stroke-linecap="round" stroke-linejoin="round"/>
<path d="M170.282 74.7571V88.5875" stroke="#F8F9FA" stroke-width="3" stroke-miterlimit="10" stroke-linecap="round" stroke-linejoin="round"/>
<path d="M181.982 80.7585L181.79 94.2035" stroke="#F8F9FA" stroke-width="3" stroke-miterlimit="10" stroke-linecap="round" stroke-linejoin="round"/>
<path d="M170.269 88.3928L181.683 93.9669" stroke="#F8F9FA" stroke-width="3" stroke-miterlimit="10" stroke-linecap="round" stroke-linejoin="round"/>
<path d="M170.269 74.9135L182.084 81.0294" stroke="#F8F9FA" stroke-width="3" stroke-miterlimit="10" stroke-linecap="round" stroke-linejoin="round"/>
<path d="M173.342 76.4015L176.941 74.4977" stroke="#F8F9FA" stroke-width="3" stroke-miterlimit="10" stroke-linecap="round" stroke-linejoin="round"/>
<path d="M180.04 79.9725L176.753 74.448" stroke="#F8F9FA" stroke-width="3" stroke-miterlimit="10" stroke-linecap="round" stroke-linejoin="round"/>
<path d="M176.393 87.7137C176.397 87.7214 176.856 87.6336 176.86 87.6298C178.597 86.1228 179.372 86.3975 179.283 84.9973C179.18 83.4902 177.519 81.3232 175.685 82.7577C174.046 78.4045 169.748 82.029 176.393 87.7137Z" stroke="#F8F9FA" stroke-width="3" stroke-miterlimit="10" stroke-linecap="round" stroke-linejoin="round"/>
<path d="M150.803 47.2185L150.633 69.4501" stroke="#F8F9FA" stroke-width="3" stroke-miterlimit="10" stroke-linecap="round" stroke-linejoin="round"/>
<path d="M162.654 52.6438L162.538 74.9631" stroke="#F8F9FA" stroke-width="3" stroke-miterlimit="10" stroke-linecap="round" stroke-linejoin="round"/>
<path d="M150.456 69.1525L162.333 74.7991" stroke="#F8F9FA" stroke-width="3" stroke-miterlimit="10" stroke-linecap="round" stroke-linejoin="round"/>
<path d="M150.607 47.2681L162.592 52.743" stroke="#F8F9FA" stroke-width="3" stroke-miterlimit="10" stroke-linecap="round" stroke-linejoin="round"/>
<path d="M153.778 66.8938L153.903 52.5904" stroke="#F8F9FA" stroke-width="3" stroke-miterlimit="10" stroke-linecap="round" stroke-linejoin="round"/>
<path d="M159.581 55.3107L159.719 69.4271" stroke="#F8F9FA" stroke-width="3" stroke-miterlimit="10" stroke-linecap="round" stroke-linejoin="round"/>
<path d="M153.622 66.7946L159.719 69.4272" stroke="#F8F9FA" stroke-width="3" stroke-miterlimit="10" stroke-linecap="round" stroke-linejoin="round"/>
<path d="M153.902 52.5904L159.719 55.3107" stroke="#F8F9FA" stroke-width="3" stroke-miterlimit="10" stroke-linecap="round" stroke-linejoin="round"/>
<path d="M131.538 50.2135L136.454 52.7621" stroke="#F8F9FA" stroke-width="3" stroke-miterlimit="10" stroke-linecap="round" stroke-linejoin="round"/>
<path d="M111.626 45.1888L111.728 50.5301" stroke="#F8F9FA" stroke-width="3" stroke-miterlimit="10" stroke-linecap="round" stroke-linejoin="round"/>
<path d="M127.556 57.058L136.436 52.6896" stroke="#F8F9FA" stroke-width="3" stroke-miterlimit="10" stroke-linecap="round" stroke-linejoin="round"/>
<path d="M122.964 54.5972L127.743 57.0772" stroke="#F8F9FA" stroke-width="3" stroke-miterlimit="10" stroke-linecap="round" stroke-linejoin="round"/>
<path d="M111.359 45.1964L121.384 49.7671" stroke="#F8F9FA" stroke-width="3" stroke-miterlimit="10" stroke-linecap="round" stroke-linejoin="round"/>
<path d="M122.27 39.7368L111.684 45.1964" stroke="#F8F9FA" stroke-width="3" stroke-miterlimit="10" stroke-linecap="round" stroke-linejoin="round"/>
<path d="M131.613 44.7004L122.061 39.7368" stroke="#F8F9FA" stroke-width="3" stroke-miterlimit="10" stroke-linecap="round" stroke-linejoin="round"/>
<path d="M121.099 55.5091L121.232 49.6908" stroke="#F8F9FA" stroke-width="3" stroke-miterlimit="10" stroke-linecap="round" stroke-linejoin="round"/>
<path d="M131.364 44.6699L121.379 49.6946" stroke="#F8F9FA" stroke-width="3" stroke-miterlimit="10" stroke-linecap="round" stroke-linejoin="round"/>
<path d="M131.538 50.2135L131.426 44.6814" stroke="#F8F9FA" stroke-width="3" stroke-miterlimit="10" stroke-linecap="round" stroke-linejoin="round"/>
<path d="M111.493 50.595L121.148 55.5358" stroke="#F8F9FA" stroke-width="3" stroke-miterlimit="10" stroke-linecap="round" stroke-linejoin="round"/>
<path d="M131.56 50.3585L121.237 55.4481" stroke="#F8F9FA" stroke-width="3" stroke-miterlimit="10" stroke-linecap="round" stroke-linejoin="round"/>
<path d="M111.626 45.7954L108.633 47.5008" stroke="#F8F9FA" stroke-width="3" stroke-miterlimit="10" stroke-linecap="round" stroke-linejoin="round"/>
<path d="M111.697 48.9011L108.633 47.5009" stroke="#F8F9FA" stroke-width="3" stroke-miterlimit="10" stroke-linecap="round" stroke-linejoin="round"/>
<path d="M121.099 52.4492L131.377 47.6153" stroke="#F8F9FA" stroke-width="3" stroke-miterlimit="10" stroke-linecap="round" stroke-linejoin="round"/>
<path d="M111.729 48.2029L121.099 52.4492" stroke="#F8F9FA" stroke-width="3" stroke-miterlimit="10" stroke-linecap="round" stroke-linejoin="round"/>
<path d="M11.397 69.7248L93.2068 28.9663" stroke="#F8F9FA" stroke-width="3" stroke-miterlimit="10" stroke-linecap="round" stroke-linejoin="round"/>
<path d="M95.6384 31.8163L95.5894 29.5271" stroke="#F8F9FA" stroke-width="3" stroke-miterlimit="10" stroke-linecap="round" stroke-linejoin="round"/>
<path d="M93.0552 28.9777L95.5936 29.6836" stroke="#F8F9FA" stroke-width="3" stroke-miterlimit="10" stroke-linecap="round" stroke-linejoin="round"/>
<path d="M11.4593 69.6866L11.397 71.4187" stroke="#F8F9FA" stroke-width="3" stroke-miterlimit="10" stroke-linecap="round" stroke-linejoin="round"/>
<path d="M13.481 72.2772L11.2632 71.186" stroke="#F8F9FA" stroke-width="3" stroke-miterlimit="10" stroke-linecap="round" stroke-linejoin="round"/>
<path d="M95.6383 31.8163L13.5479 72.2962" stroke="#F8F9FA" stroke-width="3" stroke-miterlimit="10" stroke-linecap="round" stroke-linejoin="round"/>
<path d="M16.0017 120.281L15.8413 71.4454" stroke="#F8F9FA" stroke-width="3" stroke-miterlimit="10" stroke-linecap="round" stroke-linejoin="round"/>
<path d="M20.9272 118.247L21.016 68.6145" stroke="#F8F9FA" stroke-width="3" stroke-miterlimit="10" stroke-linecap="round" stroke-linejoin="round"/>
<path d="M26.4448 116.466L26.5248 65.8942" stroke="#F8F9FA" stroke-width="3" stroke-miterlimit="10" stroke-linecap="round" stroke-linejoin="round"/>
<path d="M30.8228 115.844L31.1033 63.6394" stroke="#F8F9FA" stroke-width="3" stroke-miterlimit="10" stroke-linecap="round" stroke-linejoin="round"/>
<path d="M35.8865 94.9971L35.7573 61.4151" stroke="#F8F9FA" stroke-width="3" stroke-miterlimit="10" stroke-linecap="round" stroke-linejoin="round"/>
<path d="M40.9004 105.378L41.181 58.7444" stroke="#F8F9FA" stroke-width="3" stroke-miterlimit="10" stroke-linecap="round" stroke-linejoin="round"/>
<path d="M45.9962 100.968L45.8403 56.5316" stroke="#F8F9FA" stroke-width="3" stroke-miterlimit="10" stroke-linecap="round" stroke-linejoin="round"/>
<path d="M63.8096 98.3087L63.8586 47.4856" stroke="#F8F9FA" stroke-width="3" stroke-miterlimit="10" stroke-linecap="round" stroke-linejoin="round"/>
<path d="M68.672 97.0764L68.5474 45.1888" stroke="#F8F9FA" stroke-width="3" stroke-miterlimit="10" stroke-linecap="round" stroke-linejoin="round"/>
<path d="M73.754 96.0043L73.4512 42.7814" stroke="#F8F9FA" stroke-width="3" stroke-miterlimit="10" stroke-linecap="round" stroke-linejoin="round"/>
<path d="M78.1538 95.7105L78.5101 40.3892" stroke="#F8F9FA" stroke-width="3" stroke-miterlimit="10" stroke-linecap="round" stroke-linejoin="round"/>
<path d="M83.3066 95.5007L83.3821 38.081" stroke="#F8F9FA" stroke-width="3" stroke-miterlimit="10" stroke-linecap="round" stroke-linejoin="round"/>
<path d="M88.9001 94.9055C88.8066 75.2569 87.9159 55.036 88.192 35.2615" stroke="#F8F9FA" stroke-width="3" stroke-miterlimit="10" stroke-linecap="round" stroke-linejoin="round"/>
<path d="M94.4449 90.8651C95.0416 71.4416 94.151 51.9838 94.3247 32.4649" stroke="#F8F9FA" stroke-width="3" stroke-miterlimit="10" stroke-linecap="round" stroke-linejoin="round"/>
<path d="M15.6187 71.392C17.6851 73.2691 21.5596 71.5446 20.9762 69.0189" stroke="#F8F9FA" stroke-width="3" stroke-miterlimit="10" stroke-linecap="round" stroke-linejoin="round"/>
<path d="M26.5162 66.4551C26.7701 68.9617 23.1672 70.7587 21.0474 68.8358" stroke="#F8F9FA" stroke-width="3" stroke-miterlimit="10" stroke-linecap="round" stroke-linejoin="round"/>
<path d="M30.8494 63.9828C31.9405 66.1728 28.0972 68.3742 26.5474 66.1613" stroke="#F8F9FA" stroke-width="3" stroke-miterlimit="10" stroke-linecap="round" stroke-linejoin="round"/>
<path d="M35.2897 61.7547C36.9108 64.0019 32.1901 66.5581 31.3439 63.6738C31.2549 63.7653 31.1658 63.8569 31.0723 63.9484" stroke="#F8F9FA" stroke-width="3" stroke-miterlimit="10" stroke-linecap="round" stroke-linejoin="round"/>
<path d="M40.8521 59.042C41.5557 61.747 37.5343 64.4864 35.7573 61.4151" stroke="#F8F9FA" stroke-width="3" stroke-miterlimit="10" stroke-linecap="round" stroke-linejoin="round"/>
<path d="M45.8396 56.5316C47.042 59.4007 42.5084 62.3995 41.4663 58.4163" stroke="#F8F9FA" stroke-width="3" stroke-miterlimit="10" stroke-linecap="round" stroke-linejoin="round"/>
<path d="M68.4501 45.4864C68.8197 47.5962 65.7602 49.1109 63.8096 47.7832" stroke="#F8F9FA" stroke-width="3" stroke-miterlimit="10" stroke-linecap="round" stroke-linejoin="round"/>
<path d="M73.3082 42.9683C74.0965 45.3261 70.5649 47.2605 68.6099 45.33" stroke="#F8F9FA" stroke-width="3" stroke-miterlimit="10" stroke-linecap="round" stroke-linejoin="round"/>
<path d="M78.4435 40.5876C79.263 43.0828 75.5666 45.1735 73.5225 43.0484" stroke="#F8F9FA" stroke-width="3" stroke-miterlimit="10" stroke-linecap="round" stroke-linejoin="round"/>
<path d="M83.3375 38.1191C84.001 40.5609 80.4873 42.5829 78.4966 40.4846" stroke="#F8F9FA" stroke-width="3" stroke-miterlimit="10" stroke-linecap="round" stroke-linejoin="round"/>
<path d="M88.1294 35.6392C89.1848 38.3251 85.2836 40.8928 83.48 37.9283" stroke="#F8F9FA" stroke-width="3" stroke-miterlimit="10" stroke-linecap="round" stroke-linejoin="round"/>
<path d="M93.9193 32.8578C94.4804 35.4484 90.7974 37.5048 88.5039 35.5705" stroke="#F8F9FA" stroke-width="3" stroke-miterlimit="10" stroke-linecap="round" stroke-linejoin="round"/>
<path d="M2.02686 152.917V52.2165" stroke="#F8F9FA" stroke-width="3" stroke-miterlimit="10" stroke-linecap="round" stroke-linejoin="round"/>
<path d="M48.6895 105.317L63.9025 98.0493" stroke="#F8F9FA" stroke-width="3" stroke-miterlimit="10" stroke-linecap="round" stroke-linejoin="round"/>
<path d="M46.4229 63.0633L63.8403 54.5743" stroke="#F8F9FA" stroke-width="3" stroke-miterlimit="10" stroke-linecap="round" stroke-linejoin="round"/>
<path d="M99.6017 201.905L2.00879 152.909" stroke="#F8F9FA" stroke-width="3" stroke-miterlimit="10" stroke-linecap="round" stroke-linejoin="round"/>
<path d="M102.448 2L201.933 50.801" stroke="#F8F9FA" stroke-width="3" stroke-miterlimit="10" stroke-linecap="round" stroke-linejoin="round"/>
<path d="M202 151.719L201.933 50.801" stroke="#F8F9FA" stroke-width="3" stroke-miterlimit="10" stroke-linecap="round" stroke-linejoin="round"/>
<path d="M102.448 2.0038L2.02686 52.2165" stroke="#F8F9FA" stroke-width="3" stroke-miterlimit="10" stroke-linecap="round" stroke-linejoin="round"/>
<path d="M102.447 2C101.864 18.2339 101.904 34.4641 101.944 50.7095L102.447 2Z" fill="#F8F9FA" stroke="#F8F9FA" stroke-width="3" stroke-miterlimit="10" stroke-linecap="round" stroke-linejoin="round"/>
<path d="M101.708 89.6595C101.998 76.6647 101.98 63.6813 101.944 50.7094L101.543 89.6747C101.597 89.6709 101.65 89.6633 101.708 89.6595Z" fill="#F8F9FA" stroke="#F8F9FA" stroke-width="3" stroke-miterlimit="10" stroke-linecap="round" stroke-linejoin="round"/>
<path opacity="0.9686" d="M202 151.719L99.6016 201.905" stroke="#F8F9FA" stroke-width="3" stroke-miterlimit="10" stroke-linecap="round" stroke-linejoin="round"/>
<path d="M195.885 54.1966V148.911" stroke="#F8F9FA" stroke-width="3" stroke-miterlimit="10" stroke-linecap="round" stroke-linejoin="round"/>
<path d="M102.425 7.73433L196.117 54.1318" stroke="#F8F9FA" stroke-width="3" stroke-miterlimit="10" stroke-linecap="round" stroke-linejoin="round"/>
<path d="M6.43555 55.4557L102.105 7.79156" stroke="#F8F9FA" stroke-width="3" stroke-miterlimit="10" stroke-linecap="round" stroke-linejoin="round"/>
<path d="M6.95251 150.212L6.40918 55.593" stroke="#F8F9FA" stroke-width="3" stroke-miterlimit="10" stroke-linecap="round" stroke-linejoin="round"/>
<path d="M99.7397 196.376L6.80518 150.151" stroke="#F8F9FA" stroke-width="3" stroke-miterlimit="10" stroke-linecap="round" stroke-linejoin="round"/>
<path d="M195.885 148.911L99.7393 196.376" stroke="#F8F9FA" stroke-width="3" stroke-miterlimit="10" stroke-linecap="round" stroke-linejoin="round"/>
<path d="M195.885 54.1966L201.933 50.801" stroke="#F8F9FA" stroke-width="3" stroke-miterlimit="10" stroke-linecap="round" stroke-linejoin="round"/>
<path d="M195.885 148.911L201.906 151.677" stroke="#F8F9FA" stroke-width="3" stroke-miterlimit="10" stroke-linecap="round" stroke-linejoin="round"/>
<path d="M99.7529 196.128L99.499 202" stroke="#F8F9FA" stroke-width="3" stroke-miterlimit="10" stroke-linecap="round" stroke-linejoin="round"/>
<path d="M2.17334 152.89L6.97861 150.307" stroke="#F8F9FA" stroke-width="3" stroke-miterlimit="10" stroke-linecap="round" stroke-linejoin="round"/>
<path d="M45.8306 94.9818C50.333 90.9376 57.1869 88.9194 63.6399 89.732" stroke="#F8F9FA" stroke-width="3" stroke-miterlimit="10" stroke-linecap="round" stroke-linejoin="round"/>
<path d="M57.4988 80.6135C55.4547 81.0065 53.415 81.3995 51.3709 81.7924C49.1486 77.8322 49.3089 73.1738 51.5802 69.5416C55.2543 72.3001 57.481 76.4282 57.4988 80.6135Z" stroke="#F8F9FA" stroke-width="3" stroke-miterlimit="10" stroke-linecap="round" stroke-linejoin="round"/>
<path d="M49.9102 73.7308C51.6114 73.4713 53.3171 73.2119 55.0183 72.9525" stroke="#F8F9FA" stroke-width="3" stroke-miterlimit="10" stroke-linecap="round" stroke-linejoin="round"/>
<path d="M52.1149 81.6894C51.8655 82.4792 51.6162 83.269 51.3623 84.0587" stroke="#F8F9FA" stroke-width="3" stroke-miterlimit="10" stroke-linecap="round" stroke-linejoin="round"/>
<path d="M56.9648 80.8272C57.6329 81.5177 58.3009 82.2121 58.9689 82.9027C58.9689 82.9103 58.9689 82.9179 58.9689 82.9217" stroke="#F8F9FA" stroke-width="3" stroke-miterlimit="10" stroke-linecap="round" stroke-linejoin="round"/>
<path d="M51.3042 83.9137C53.9317 84.0358 56.5904 83.6657 59.0443 82.8378" stroke="#F8F9FA" stroke-width="3" stroke-miterlimit="10" stroke-linecap="round" stroke-linejoin="round"/>
<path d="M53.4909 84.0129C53.1168 84.9477 52.7471 85.8862 52.373 86.821C52.9832 86.4471 53.5933 86.0694 54.1811 85.8137C54.5241 86.6798 54.8625 87.5421 55.2054 88.4081C55.5528 87.6909 55.9046 86.9698 56.2297 86.2945C56.773 86.6531 57.3164 87.0156 57.8597 87.3742C57.8686 86.7599 57.8775 86.1457 57.971 85.4475C58.6702 85.6153 59.365 85.7832 60.0642 85.9511C59.552 84.8981 58.6658 83.9862 57.5524 83.3682" stroke="#F8F9FA" stroke-width="3" stroke-miterlimit="10" stroke-linecap="round" stroke-linejoin="round"/>
<path d="M51.9189 82.0824C53.776 82.4029 55.7667 82.0977 57.3789 81.243" stroke="#F8F9FA" stroke-width="3" stroke-miterlimit="10" stroke-linecap="round" stroke-linejoin="round"/>
<path d="M51.6787 83.0858C53.9054 83.3033 56.199 83.0019 58.252 82.2198" stroke="#F8F9FA" stroke-width="3" stroke-miterlimit="10" stroke-linecap="round" stroke-linejoin="round"/>
<path d="M53.2364 75.3141C55.659 75.0508 56.336 78.229 53.9088 78.7021C51.4016 79.1637 50.3951 75.7223 53.2364 75.3141Z" stroke="#F8F9FA" stroke-width="3" stroke-miterlimit="10" stroke-linecap="round" stroke-linejoin="round"/>
<path d="M57.6641 80.3045C59.2629 80.2854 60.8572 80.2701 62.456 80.251" stroke="#F8F9FA" stroke-width="3" stroke-miterlimit="10" stroke-linecap="round" stroke-linejoin="round"/>
<path d="M51.1886 81.6169C49.7234 81.9565 48.2538 82.2961 46.7886 82.6318" stroke="#F8F9FA" stroke-width="3" stroke-miterlimit="10" stroke-linecap="round" stroke-linejoin="round"/>
<path d="M56.9561 76.6037C58.114 76.5006 59.2852 76.5197 60.4431 76.6533C61.1557 77.8398 61.8638 79.0263 62.5051 80.2739C62.5585 80.232 62.6119 80.1862 62.6654 80.148" stroke="#F8F9FA" stroke-width="3" stroke-miterlimit="10" stroke-linecap="round" stroke-linejoin="round"/>
<path d="M49.8877 77.9276C49.0549 78.0573 48.2311 78.2481 47.5675 78.4236C47.2201 79.8314 46.8728 81.2354 46.5254 82.6432C46.7481 82.6661 46.9707 82.6852 47.1979 82.6928" stroke="#F8F9FA" stroke-width="3" stroke-miterlimit="10" stroke-linecap="round" stroke-linejoin="round"/>
<path d="M81.7168 105.489C84.4957 101.266 87.2747 97.0459 90.0581 92.8224C96.7694 88.9499 105.227 88.6179 112.397 90.8194C124.581 105.939 135.59 121.277 145.165 137.415C139.246 137.442 133.328 137.469 127.409 137.491" stroke="#F8F9FA" stroke-width="3" stroke-miterlimit="10" stroke-linecap="round" stroke-linejoin="round"/>
<path d="M145.009 137.35C141.17 142.402 137.327 147.453 133.176 152.94C127.427 153.184 121.673 153.424 115.923 153.668" stroke="#F8F9FA" stroke-width="3" stroke-miterlimit="10" stroke-linecap="round" stroke-linejoin="round"/>
<path d="M127.605 137.789C123.868 143.134 120.128 148.483 116.391 153.828" stroke="#F8F9FA" stroke-width="3" stroke-miterlimit="10" stroke-linecap="round" stroke-linejoin="round"/>
<path d="M119.41 149.498C124.723 149.7 130.041 149.903 135.354 150.105" stroke="#F8F9FA" stroke-width="3" stroke-miterlimit="10" stroke-linecap="round" stroke-linejoin="round"/>
<path d="M81.9434 105.462C93.4466 121.376 104.954 137.285 116.458 153.199" stroke="#F8F9FA" stroke-width="3" stroke-miterlimit="10" stroke-linecap="round" stroke-linejoin="round"/>
<path d="M83.9971 102.04C95.7854 117.839 107.578 133.638 119.366 149.437" stroke="#F8F9FA" stroke-width="3" stroke-miterlimit="10" stroke-linecap="round" stroke-linejoin="round"/>
<path d="M112.811 148.346C112.058 149.571 111.301 150.795 110.54 151.925C110.036 151.234 109.533 150.547 109.025 149.857" stroke="#F8F9FA" stroke-width="3" stroke-miterlimit="10" stroke-linecap="round" stroke-linejoin="round"/>
<path d="M110.37 144.817C109.916 146.534 109.466 148.251 109.012 149.964C109.065 150.006 109.119 150.048 109.168 150.093" stroke="#F8F9FA" stroke-width="3" stroke-miterlimit="10" stroke-linecap="round" stroke-linejoin="round"/>
<path d="M85.3416 110.254C83.9299 110.407 82.5226 110.56 81.1108 110.712" stroke="#F8F9FA" stroke-width="3" stroke-miterlimit="10" stroke-linecap="round" stroke-linejoin="round"/>
<path d="M82.336 106.13C81.6011 107.313 80.8663 108.495 80.2295 109.648C80.5991 109.991 80.9732 110.334 81.3429 110.678" stroke="#F8F9FA" stroke-width="3" stroke-miterlimit="10" stroke-linecap="round" stroke-linejoin="round"/>
<path d="M90.9441 92.2234C93.0461 92.4523 95.0234 93.6007 96.0611 95.4091C93.34 99.3122 90.6234 103.215 87.9023 107.118" stroke="#F8F9FA" stroke-width="3" stroke-miterlimit="10" stroke-linecap="round" stroke-linejoin="round"/>
<path d="M96.0347 95.3214C101.112 95.3786 106.189 95.4358 111.261 95.493" stroke="#F8F9FA" stroke-width="3" stroke-miterlimit="10" stroke-linecap="round" stroke-linejoin="round"/>
<path d="M100.64 100.567C102.492 98.8657 103.592 96.3896 105.939 95.2794C105.712 95.4015 105.485 95.5274 105.258 95.6495" stroke="#F8F9FA" stroke-width="3" stroke-miterlimit="10" stroke-linecap="round" stroke-linejoin="round"/>
<path d="M92.2002 101.082C95.0994 100.861 98.0031 100.64 100.76 100.64C108.433 111.613 116.106 122.581 123.78 133.554" stroke="#F8F9FA" stroke-width="3" stroke-miterlimit="10" stroke-linecap="round" stroke-linejoin="round"/>
<path d="M110.433 94.5125C122.136 106.527 131.885 119.854 139.309 133.978" stroke="#F8F9FA" stroke-width="3" stroke-miterlimit="10" stroke-linecap="round" stroke-linejoin="round"/>
<path d="M140.564 134.195C121.517 131.532 124.608 131.326 115.589 144.386C115.589 144.386 122.14 134.745 122.234 134.748C124.113 135.66 125.993 136.568 127.872 137.48" stroke="#F8F9FA" stroke-width="3" stroke-miterlimit="10" stroke-linecap="round" stroke-linejoin="round"/>
<path d="M81.4724 151.635C82.6481 155.854 77.1124 160.906 71.6258 160.616C66.7537 157.85 66.3752 151.902 71.0646 147.346C75.812 145.607 80.5683 148.384 81.4724 151.635Z" stroke="#F8F9FA" stroke-width="3" stroke-miterlimit="10" stroke-linecap="round" stroke-linejoin="round"/>
<path d="M76.689 147.198C81.1825 145.278 85.676 143.356 90.1696 141.436" stroke="#F8F9FA" stroke-width="3" stroke-miterlimit="10" stroke-linecap="round" stroke-linejoin="round"/>
<path d="M79.2676 148.354C83.0797 146.56 86.8919 144.771 90.7085 142.978C90.4769 142.402 90.2498 141.826 90.0182 141.253" stroke="#F8F9FA" stroke-width="3" stroke-miterlimit="10" stroke-linecap="round" stroke-linejoin="round"/>
<path d="M86.7978 153.054C86.4861 153.126 86.1699 153.199 85.2837 153.401C85.5153 153.344 85.7468 153.29 86.7978 153.054Z" stroke="#F8F9FA" stroke-width="3" stroke-miterlimit="10" stroke-linecap="round" stroke-linejoin="round"/>
<path d="M78.8535 158.392C82.924 158.54 86.9944 158.685 91.0604 158.834" stroke="#F8F9FA" stroke-width="3" stroke-miterlimit="10" stroke-linecap="round" stroke-linejoin="round"/>
<path d="M80.0425 156.919C84.5449 157.247 89.0474 157.575 93.5453 157.903" stroke="#F8F9FA" stroke-width="3" stroke-miterlimit="10" stroke-linecap="round" stroke-linejoin="round"/>
<path d="M91.0869 158.899C91.893 158.556 92.6991 158.208 93.5051 157.865" stroke="#F8F9FA" stroke-width="3" stroke-miterlimit="10" stroke-linecap="round" stroke-linejoin="round"/>
<path d="M81.3652 153.836C82.7191 153.687 84.0685 153.538 85.4223 153.39L85.0171 153.294" stroke="#F8F9FA" stroke-width="3" stroke-miterlimit="10" stroke-linecap="round" stroke-linejoin="round"/>
<path d="M81.2271 152.348C82.9149 152.249 85.0926 151.974 87.1234 151.795C87.0299 152.241 86.9364 152.692 86.8429 153.138" stroke="#F8F9FA" stroke-width="3" stroke-miterlimit="10" stroke-linecap="round" stroke-linejoin="round"/>
<path d="M35.9575 117.976C37.2357 121.265 38.5183 124.554 39.547 127.274C41.3506 129.083 45.2162 128.838 46.6903 126.82" stroke="#F8F9FA" stroke-width="3" stroke-miterlimit="10" stroke-linecap="round" stroke-linejoin="round"/>
<path d="M46.0625 116.073C46.3297 119.701 46.5969 123.333 46.8686 126.961" stroke="#F8F9FA" stroke-width="3" stroke-miterlimit="10" stroke-linecap="round" stroke-linejoin="round"/>
<path d="M35.9888 117.755C39.1195 119.3 43.5106 118.587 45.7641 116.168" stroke="#F8F9FA" stroke-width="3" stroke-miterlimit="10" stroke-linecap="round" stroke-linejoin="round"/>
<path d="M39.5914 115.214C38.5849 113.684 37.5784 112.154 36.572 110.628C35.561 109.091 32.2387 109.617 31.9359 111.361C31.6375 113.108 34.6347 114.44 39.5914 115.214Z" stroke="#F8F9FA" stroke-width="3" stroke-miterlimit="10" stroke-linecap="round" stroke-linejoin="round"/>
<path d="M42.1299 114.882C41.7024 112.585 43.4125 110.132 45.9777 109.369C48.5429 108.606 51.6603 109.621 52.9874 111.647C49.1753 112.467 45.3631 113.287 42.1299 114.882Z" stroke="#F8F9FA" stroke-width="3" stroke-miterlimit="10" stroke-linecap="round" stroke-linejoin="round"/>
<path d="M39.894 113.478C40.4819 111.807 40.4285 110.033 40.5086 108.289C40.5843 106.546 40.8204 104.737 41.8981 103.257C42.9758 101.777 45.1001 100.728 47.0597 101.205C49.0192 101.685 50.1192 104.074 48.6941 105.321C45.7904 107.862 42.8868 110.403 40.7358 113.577C40.6066 113.707 40.4774 113.841 39.894 113.478Z" stroke="#F8F9FA" stroke-width="3" stroke-miterlimit="10" stroke-linecap="round" stroke-linejoin="round"/>
<path d="M38.3045 111.933C38.585 109.934 37.3381 108.007 35.8818 106.424C34.4255 104.84 32.6976 103.398 31.7134 101.567C30.7336 99.7356 30.7202 97.3129 32.4571 95.9547C34.1939 94.5965 37.7433 95.4015 37.8057 97.4159C37.9616 102.265 38.113 107.114 38.3045 111.933Z" stroke="#F8F9FA" stroke-width="3" stroke-miterlimit="10" stroke-linecap="round" stroke-linejoin="round"/>
<path d="M38.5317 111.674C39.6406 113.944 40.754 116.214 41.8629 118.484" stroke="#F8F9FA" stroke-width="3" stroke-miterlimit="10" stroke-linecap="round" stroke-linejoin="round"/>
<path d="M40.4463 113.413C40.7269 114.787 41.0119 116.157 41.2925 117.53" stroke="#F8F9FA" stroke-width="3" stroke-miterlimit="10" stroke-linecap="round" stroke-linejoin="round"/>
<path d="M42.4422 114.459C41.8321 115.393 41.2175 116.328 40.6074 117.259" stroke="#F8F9FA" stroke-width="3" stroke-miterlimit="10" stroke-linecap="round" stroke-linejoin="round"/>
<path d="M38.9414 115.107C39.9167 116.21 40.8876 117.313 41.8629 118.415" stroke="#F8F9FA" stroke-width="3" stroke-miterlimit="10" stroke-linecap="round" stroke-linejoin="round"/>
<path d="M35.8286 117.618C38.6165 115.786 42.3975 115.302 45.6262 116.355C45.506 116.225 45.3857 116.092 45.2655 115.962" stroke="#F8F9FA" stroke-width="3" stroke-miterlimit="10" stroke-linecap="round" stroke-linejoin="round"/>
<path d="M122.217 71.3195L115.39 74.9211" stroke="#F8F9FA" stroke-miterlimit="10"/>
<path d="M137.715 78.6906L130.46 82.4181" stroke="#F8F9FA" stroke-miterlimit="10"/>
<path d="M115.135 74.8525L130.509 82.5593" stroke="#F8F9FA" stroke-miterlimit="10"/>
<path d="M122.216 71.3195L137.607 78.8356" stroke="#F8F9FA" stroke-miterlimit="10"/>
<path d="M2 52.247L6.67168 55.6426" stroke="#F8F9FA" stroke-miterlimit="10"/>
<path d="M7.32178 150.116C33.9133 137.656 59.8591 124.165 86.3437 111.51" stroke="#F8F9FA" stroke-miterlimit="10"/>
<path d="M134.2 119.605C154.82 129.285 175.635 138.667 195.885 148.911" stroke="#F8F9FA" stroke-miterlimit="10"/>
<path d="M170.282 74.7571V88.5875" stroke="#F8F9FA" stroke-miterlimit="10"/>
<path d="M181.982 80.7585L181.79 94.2035" stroke="#F8F9FA" stroke-miterlimit="10"/>
<path d="M170.269 88.3928L181.683 93.9669" stroke="#F8F9FA" stroke-miterlimit="10"/>
<path d="M170.269 74.9135L182.084 81.0294" stroke="#F8F9FA" stroke-miterlimit="10"/>
<path d="M173.342 76.4015L176.941 74.4977" stroke="#F8F9FA" stroke-miterlimit="10"/>
<path d="M180.04 79.9725L176.753 74.448" stroke="#F8F9FA" stroke-miterlimit="10"/>
<path d="M176.393 87.7137C176.397 87.7214 176.856 87.6336 176.86 87.6298C178.597 86.1228 179.372 86.3975 179.283 84.9973C179.18 83.4902 177.519 81.3232 175.685 82.7577C174.046 78.4045 169.748 82.029 176.393 87.7137Z" stroke="#F8F9FA" stroke-miterlimit="10"/>
<path d="M150.803 47.2185L150.633 69.4501" stroke="#F8F9FA" stroke-miterlimit="10"/>
<path d="M162.654 52.6438L162.538 74.9631" stroke="#F8F9FA" stroke-miterlimit="10"/>
<path d="M150.456 69.1525L162.333 74.7991" stroke="#F8F9FA" stroke-miterlimit="10"/>
<path d="M150.607 47.2681L162.592 52.743" stroke="#F8F9FA" stroke-miterlimit="10"/>
<path d="M153.778 66.8938L153.903 52.5904" stroke="#F8F9FA" stroke-miterlimit="10"/>
<path d="M159.581 55.3107L159.719 69.4271" stroke="#F8F9FA" stroke-miterlimit="10"/>
<path d="M153.622 66.7946L159.719 69.4272" stroke="#F8F9FA" stroke-miterlimit="10"/>
<path d="M153.902 52.5904L159.719 55.3107" stroke="#F8F9FA" stroke-miterlimit="10"/>
<path d="M131.538 50.2135L136.454 52.7621" stroke="#F8F9FA" stroke-miterlimit="10"/>
<path d="M111.626 45.1888L111.728 50.5301" stroke="#F8F9FA" stroke-miterlimit="10"/>
<path d="M127.556 57.058L136.436 52.6896" stroke="#F8F9FA" stroke-miterlimit="10"/>
<path d="M122.964 54.5972L127.743 57.0772" stroke="#F8F9FA" stroke-miterlimit="10"/>
<path d="M111.359 45.1964L121.384 49.7671" stroke="#F8F9FA" stroke-miterlimit="10"/>
<path d="M122.27 39.7368L111.684 45.1964" stroke="#F8F9FA" stroke-miterlimit="10"/>
<path d="M131.613 44.7004L122.061 39.7368" stroke="#F8F9FA" stroke-miterlimit="10"/>
<path d="M121.099 55.5091L121.232 49.6908" stroke="#F8F9FA" stroke-miterlimit="10"/>
<path d="M131.364 44.6699L121.379 49.6946" stroke="#F8F9FA" stroke-miterlimit="10"/>
<path d="M131.538 50.2135L131.426 44.6814" stroke="#F8F9FA" stroke-miterlimit="10"/>
<path d="M111.493 50.595L121.148 55.5358" stroke="#F8F9FA" stroke-miterlimit="10"/>
<path d="M131.56 50.3585L121.237 55.4481" stroke="#F8F9FA" stroke-miterlimit="10"/>
<path d="M111.626 45.7954L108.633 47.5008" stroke="#F8F9FA" stroke-miterlimit="10"/>
<path d="M111.697 48.9011L108.633 47.5009" stroke="#F8F9FA" stroke-miterlimit="10"/>
<path d="M121.099 52.4492L131.377 47.6153" stroke="#F8F9FA" stroke-miterlimit="10"/>
<path d="M111.729 48.2029L121.099 52.4492" stroke="#F8F9FA" stroke-miterlimit="10"/>
<path d="M11.397 69.7248L93.2068 28.9663" stroke="#F8F9FA" stroke-miterlimit="10"/>
<path d="M95.6384 31.8163L95.5894 29.5271" stroke="#F8F9FA" stroke-miterlimit="10"/>
<path d="M93.0552 28.9777L95.5936 29.6836" stroke="#F8F9FA" stroke-miterlimit="10"/>
<path d="M11.4593 69.6866L11.397 71.4187" stroke="#F8F9FA" stroke-miterlimit="10"/>
<path d="M13.481 72.2772L11.2632 71.186" stroke="#F8F9FA" stroke-miterlimit="10"/>
<path d="M95.6383 31.8163L13.5479 72.2962" stroke="#F8F9FA" stroke-miterlimit="10"/>
<path d="M16.0017 120.281L15.8413 71.4454" stroke="#F8F9FA" stroke-miterlimit="10"/>
<path d="M20.9272 118.247L21.016 68.6145" stroke="#F8F9FA" stroke-miterlimit="10"/>
<path d="M26.4448 116.466L26.5248 65.8942" stroke="#F8F9FA" stroke-miterlimit="10"/>
<path d="M30.8228 115.844L31.1033 63.6394" stroke="#F8F9FA" stroke-miterlimit="10"/>
<path d="M35.8865 94.9971L35.7573 61.4151" stroke="#F8F9FA" stroke-miterlimit="10"/>
<path d="M40.9004 105.378L41.181 58.7444" stroke="#F8F9FA" stroke-miterlimit="10"/>
<path d="M45.9962 100.968L45.8403 56.5316" stroke="#F8F9FA" stroke-miterlimit="10"/>
<path d="M63.8096 98.3087L63.8586 47.4856" stroke="#F8F9FA" stroke-miterlimit="10"/>
<path d="M68.672 97.0764L68.5474 45.1888" stroke="#F8F9FA" stroke-miterlimit="10"/>
<path d="M73.754 96.0043L73.4512 42.7814" stroke="#F8F9FA" stroke-miterlimit="10"/>
<path d="M78.1538 95.7105L78.5101 40.3892" stroke="#F8F9FA" stroke-miterlimit="10"/>
<path d="M83.3066 95.5007L83.3821 38.081" stroke="#F8F9FA" stroke-miterlimit="10"/>
<path d="M88.9001 94.9055C88.8066 75.2569 87.9159 55.036 88.192 35.2615" stroke="#F8F9FA" stroke-miterlimit="10"/>
<path d="M94.4449 90.8651C95.0416 71.4416 94.151 51.9838 94.3247 32.4649" stroke="#F8F9FA" stroke-miterlimit="10"/>
<path d="M15.6187 71.392C17.6851 73.2691 21.5596 71.5446 20.9762 69.0189" stroke="#F8F9FA" stroke-miterlimit="10"/>
<path d="M26.5162 66.4551C26.7701 68.9617 23.1672 70.7587 21.0474 68.8358" stroke="#F8F9FA" stroke-miterlimit="10"/>
<path d="M30.8494 63.9828C31.9405 66.1728 28.0972 68.3742 26.5474 66.1613" stroke="#F8F9FA" stroke-miterlimit="10"/>
<path d="M35.2897 61.7547C36.9108 64.0019 32.1901 66.5581 31.3439 63.6738C31.2549 63.7653 31.1658 63.8569 31.0723 63.9484" stroke="#F8F9FA" stroke-miterlimit="10"/>
<path d="M40.8521 59.042C41.5557 61.747 37.5343 64.4864 35.7573 61.4151" stroke="#F8F9FA" stroke-miterlimit="10"/>
<path d="M45.8396 56.5316C47.042 59.4007 42.5084 62.3995 41.4663 58.4163" stroke="#F8F9FA" stroke-miterlimit="10"/>
<path d="M68.4501 45.4864C68.8197 47.5962 65.7602 49.1109 63.8096 47.7832" stroke="#F8F9FA" stroke-miterlimit="10"/>
<path d="M73.3082 42.9683C74.0965 45.3261 70.5649 47.2605 68.6099 45.33" stroke="#F8F9FA" stroke-miterlimit="10"/>
<path d="M78.4435 40.5876C79.263 43.0828 75.5666 45.1735 73.5225 43.0484" stroke="#F8F9FA" stroke-miterlimit="10"/>
<path d="M83.3375 38.1191C84.001 40.5609 80.4873 42.5829 78.4966 40.4846" stroke="#F8F9FA" stroke-miterlimit="10"/>
<path d="M88.1294 35.6392C89.1848 38.3251 85.2836 40.8928 83.48 37.9283" stroke="#F8F9FA" stroke-miterlimit="10"/>
<path d="M93.9193 32.8578C94.4804 35.4484 90.7974 37.5048 88.5039 35.5705" stroke="#F8F9FA" stroke-miterlimit="10"/>
<path d="M2.02686 152.917V52.2165" stroke="#F8F9FA" stroke-miterlimit="10"/>
<path d="M48.6895 105.317L63.9025 98.0493" stroke="#F8F9FA" stroke-miterlimit="10"/>
<path d="M46.4229 63.0633L63.8403 54.5743" stroke="#F8F9FA" stroke-miterlimit="10"/>
<path d="M99.6017 201.905L2.00879 152.909" stroke="#F8F9FA" stroke-miterlimit="10"/>
<path d="M102.448 2L201.933 50.801" stroke="#F8F9FA" stroke-miterlimit="10"/>
<path d="M202 151.719L201.933 50.801" stroke="#F8F9FA" stroke-miterlimit="10"/>
<path d="M102.448 2.0038L2.02686 52.2165" stroke="#F8F9FA" stroke-miterlimit="10"/>
<path d="M102.447 2C101.864 18.2339 101.904 34.4641 101.944 50.7095L102.447 2Z" fill="#F8F9FA" stroke="#F8F9FA" stroke-miterlimit="10"/>
<path d="M101.708 89.6595C101.998 76.6647 101.98 63.6813 101.944 50.7094L101.543 89.6747C101.597 89.6709 101.65 89.6633 101.708 89.6595Z" fill="#F8F9FA" stroke="#F8F9FA" stroke-miterlimit="10"/>
<path opacity="0.9686" d="M202 151.719L99.6016 201.905" stroke="#F8F9FA" stroke-miterlimit="10"/>
<path d="M195.885 54.1966V148.911" stroke="#F8F9FA" stroke-miterlimit="10"/>
<path d="M102.425 7.73433L196.117 54.1318" stroke="#F8F9FA" stroke-miterlimit="10"/>
<path d="M6.43555 55.4557L102.105 7.79156" stroke="#F8F9FA" stroke-miterlimit="10"/>
<path d="M6.95251 150.212L6.40918 55.593" stroke="#F8F9FA" stroke-miterlimit="10"/>
<path d="M99.7397 196.376L6.80518 150.151" stroke="#F8F9FA" stroke-miterlimit="10"/>
<path d="M195.885 148.911L99.7393 196.376" stroke="#F8F9FA" stroke-miterlimit="10"/>
<path d="M195.885 54.1966L201.933 50.801" stroke="#F8F9FA" stroke-miterlimit="10"/>
<path d="M195.885 148.911L201.906 151.677" stroke="#F8F9FA" stroke-miterlimit="10"/>
<path d="M99.7529 196.128L99.499 202" stroke="#F8F9FA" stroke-miterlimit="10"/>
<path d="M2.17334 152.89L6.97861 150.307" stroke="#F8F9FA" stroke-miterlimit="10"/>
<path d="M45.8306 94.9818C50.333 90.9376 57.1869 88.9194 63.6399 89.732" stroke="#F8F9FA" stroke-miterlimit="10"/>
<path d="M57.4988 80.6135C55.4547 81.0065 53.415 81.3995 51.3709 81.7925C49.1486 77.8322 49.3089 73.1738 51.5802 69.5416C55.2543 72.3001 57.481 76.4282 57.4988 80.6135Z" stroke="#F8F9FA" stroke-miterlimit="10"/>
<path d="M49.9097 73.7308C51.6109 73.4713 53.3166 73.2119 55.0178 72.9525" stroke="#F8F9FA" stroke-miterlimit="10"/>
<path d="M52.1149 81.6894C51.8655 82.4792 51.6162 83.269 51.3623 84.0587" stroke="#F8F9FA" stroke-miterlimit="10"/>
<path d="M56.9644 80.8272C57.6324 81.5178 58.3004 82.2122 58.9684 82.9027C58.9684 82.9103 58.9684 82.918 58.9684 82.9218" stroke="#F8F9FA" stroke-miterlimit="10"/>
<path d="M51.3037 83.9137C53.9312 84.0358 56.59 83.6657 59.0438 82.8378" stroke="#F8F9FA" stroke-miterlimit="10"/>
<path d="M53.4909 84.0129C53.1168 84.9477 52.7471 85.8862 52.373 86.8209C52.9832 86.447 53.5933 86.0693 54.1811 85.8137C54.5241 86.6798 54.8625 87.542 55.2054 88.4081C55.5528 87.6908 55.9046 86.9697 56.2297 86.2944C56.773 86.6531 57.3164 87.0155 57.8597 87.3742C57.8686 86.7599 57.8775 86.1456 57.971 85.4474C58.6702 85.6153 59.365 85.7832 60.0642 85.9511C59.552 84.8981 58.6658 83.9862 57.5524 83.3681" stroke="#F8F9FA" stroke-miterlimit="10"/>
<path d="M54.5776 83.8527C54.6355 84.2266 54.6934 84.6005 54.7469 84.9744C55.0319 84.8179 55.3169 84.6577 55.6064 84.5013C55.8068 84.6424 56.0072 84.7874 56.2076 84.9286C56.3367 84.7073 56.4703 84.4898 56.5995 84.2685C56.7554 84.3525 56.9068 84.4402 57.0626 84.5242C56.9068 84.2113 56.7509 83.8985 56.595 83.5856" stroke="#F8F9FA" stroke-miterlimit="10"/>
<path d="M51.9189 82.0824C53.776 82.4029 55.7667 82.0977 57.3789 81.2431" stroke="#F8F9FA" stroke-miterlimit="10"/>
<path d="M51.6782 83.0858C53.9049 83.3033 56.1985 83.0019 58.2515 82.2197" stroke="#F8F9FA" stroke-miterlimit="10"/>
<path d="M53.2369 75.3141C55.6595 75.0509 56.3365 78.229 53.9093 78.7021C51.402 79.1637 50.3956 75.7224 53.2369 75.3141Z" stroke="#F8F9FA" stroke-miterlimit="10"/>
<path d="M57.6636 80.3045C59.2624 80.2854 60.8567 80.2701 62.4555 80.2511" stroke="#F8F9FA" stroke-miterlimit="10"/>
<path d="M51.1881 81.617C49.7229 81.9565 48.2533 82.2961 46.7881 82.6318" stroke="#F8F9FA" stroke-miterlimit="10"/>
<path d="M56.9551 76.6037C58.113 76.5007 59.2842 76.5197 60.4421 76.6533C61.1547 77.8398 61.8628 79.0264 62.5041 80.274C62.5575 80.232 62.611 80.1862 62.6644 80.1481" stroke="#F8F9FA" stroke-miterlimit="10"/>
<path d="M49.8877 77.9276C49.0549 78.0573 48.2311 78.2481 47.5675 78.4236C47.2201 79.8314 46.8728 81.2354 46.5254 82.6433C46.7481 82.6662 46.9707 82.6852 47.1979 82.6929" stroke="#F8F9FA" stroke-miterlimit="10"/>
<path d="M81.7168 105.489C84.4957 101.266 87.2747 97.0459 90.0581 92.8224C96.7694 88.9499 105.227 88.6179 112.397 90.8194C124.581 105.939 135.59 121.277 145.165 137.415C139.246 137.442 133.328 137.469 127.409 137.491" stroke="#F8F9FA" stroke-miterlimit="10"/>
<path d="M145.009 137.35C141.17 142.402 137.327 147.453 133.176 152.94C127.427 153.184 121.673 153.424 115.924 153.668" stroke="#F8F9FA" stroke-miterlimit="10"/>
<path d="M127.605 137.789C123.869 143.134 120.128 148.483 116.392 153.828" stroke="#F8F9FA" stroke-miterlimit="10"/>
<path d="M119.411 149.498C124.724 149.7 130.041 149.903 135.354 150.105" stroke="#F8F9FA" stroke-miterlimit="10"/>
<path d="M81.9438 105.462C93.4471 121.376 104.955 137.285 116.458 153.199" stroke="#F8F9FA" stroke-miterlimit="10"/>
<path d="M83.9971 102.04C95.7854 117.839 107.578 133.638 119.366 149.437" stroke="#F8F9FA" stroke-miterlimit="10"/>
<path d="M112.811 148.346C112.059 149.571 111.302 150.795 110.54 151.925C110.037 151.234 109.534 150.547 109.026 149.857" stroke="#F8F9FA" stroke-miterlimit="10"/>
<path d="M110.371 144.817C109.916 146.534 109.466 148.251 109.012 149.964C109.066 150.006 109.119 150.048 109.168 150.093" stroke="#F8F9FA" stroke-miterlimit="10"/>
<path d="M85.3421 110.254C83.9304 110.407 82.5231 110.56 81.1113 110.712" stroke="#F8F9FA" stroke-miterlimit="10"/>
<path d="M82.336 106.13C81.6011 107.313 80.8663 108.495 80.2295 109.648C80.5991 109.991 80.9732 110.334 81.3429 110.678" stroke="#F8F9FA" stroke-miterlimit="10"/>
<path d="M90.945 92.2234C93.0471 92.4523 95.0244 93.6007 96.062 95.4091C93.341 99.3121 90.6244 103.215 87.9033 107.118" stroke="#F8F9FA" stroke-miterlimit="10"/>
<path d="M96.0347 95.3214C101.112 95.3786 106.189 95.4358 111.261 95.4931" stroke="#F8F9FA" stroke-miterlimit="10"/>
<path d="M100.64 100.567C102.492 98.8657 103.592 96.3896 105.939 95.2794C105.712 95.4015 105.485 95.5274 105.258 95.6495" stroke="#F8F9FA" stroke-miterlimit="10"/>
<path d="M92.2002 101.082C95.0994 100.861 98.0031 100.64 100.76 100.64C108.433 111.613 116.106 122.581 123.78 133.554" stroke="#F8F9FA" stroke-miterlimit="10"/>
<path d="M110.433 94.5125C122.137 106.527 131.885 119.854 139.309 133.978" stroke="#F8F9FA" stroke-miterlimit="10"/>
<path d="M140.565 134.195C121.518 131.532 124.609 131.326 115.59 144.386C115.59 144.386 122.141 134.744 122.235 134.748C124.114 135.66 125.994 136.568 127.873 137.48" stroke="#F8F9FA" stroke-miterlimit="10"/>
<path d="M81.4719 151.635C82.6476 155.854 77.1119 160.906 71.6253 160.616C66.7532 157.85 66.3747 151.902 71.0642 147.346C75.8115 145.607 80.5678 148.384 81.4719 151.635Z" stroke="#F8F9FA" stroke-miterlimit="10"/>
<path d="M76.689 147.198C81.1825 145.278 85.676 143.356 90.1696 141.436" stroke="#F8F9FA" stroke-miterlimit="10"/>
<path d="M79.2671 148.354C83.0792 146.56 86.8914 144.771 90.708 142.978C90.4764 142.402 90.2493 141.826 90.0177 141.253" stroke="#F8F9FA" stroke-miterlimit="10"/>
<path d="M86.7983 153.054C86.4866 153.126 86.1704 153.199 85.2842 153.401C85.5158 153.344 85.7473 153.29 86.7983 153.054Z" stroke="#F8F9FA" stroke-miterlimit="10"/>
<path d="M78.853 158.392C82.9235 158.54 86.9939 158.685 91.0599 158.834" stroke="#F8F9FA" stroke-miterlimit="10"/>
<path d="M80.042 156.919C84.5444 157.247 89.0469 157.575 93.5449 157.903" stroke="#F8F9FA" stroke-miterlimit="10"/>
<path d="M91.0864 158.899C91.8925 158.556 92.6986 158.208 93.5046 157.865" stroke="#F8F9FA" stroke-miterlimit="10"/>
<path d="M81.3647 153.836C82.7186 153.687 84.068 153.539 85.4219 153.39L85.0166 153.294" stroke="#F8F9FA" stroke-miterlimit="10"/>
<path d="M81.2271 152.348C82.9149 152.249 85.0926 151.974 87.1234 151.795C87.0299 152.241 86.9364 152.692 86.8429 153.138" stroke="#F8F9FA" stroke-miterlimit="10"/>
<path d="M35.9575 117.976C37.2357 121.265 38.5183 124.554 39.547 127.274C41.3506 129.083 45.2162 128.838 46.6903 126.82" stroke="#F8F9FA" stroke-miterlimit="10"/>
<path d="M46.0625 116.073C46.3297 119.701 46.5969 123.333 46.8686 126.961" stroke="#F8F9FA" stroke-miterlimit="10"/>
<path d="M35.9888 117.755C39.1195 119.3 43.5106 118.587 45.7641 116.168" stroke="#F8F9FA" stroke-miterlimit="10"/>
<path d="M39.5914 115.214C38.5849 113.684 37.5784 112.154 36.572 110.628C35.561 109.091 32.2387 109.617 31.9359 111.361C31.6375 113.108 34.6347 114.44 39.5914 115.214Z" stroke="#F8F9FA" stroke-miterlimit="10"/>
<path d="M42.1299 114.882C41.7024 112.585 43.4125 110.132 45.9777 109.369C48.5429 108.606 51.6603 109.621 52.9874 111.647C49.1753 112.467 45.3631 113.287 42.1299 114.882Z" stroke="#F8F9FA" stroke-miterlimit="10"/>
<path d="M39.894 113.478C40.4819 111.807 40.4285 110.033 40.5086 108.289C40.5843 106.546 40.8204 104.737 41.8981 103.257C42.9758 101.777 45.1001 100.728 47.0597 101.205C49.0192 101.685 50.1192 104.074 48.6941 105.321C45.7904 107.862 42.8868 110.403 40.7358 113.577C40.6066 113.707 40.4774 113.841 39.894 113.478Z" stroke="#F8F9FA" stroke-miterlimit="10"/>
<path d="M38.3045 111.933C38.585 109.934 37.3381 108.007 35.8818 106.424C34.4255 104.84 32.6976 103.398 31.7134 101.567C30.7336 99.7356 30.7202 97.3129 32.4571 95.9547C34.1939 94.5965 37.7433 95.4015 37.8057 97.4159C37.9616 102.265 38.113 107.114 38.3045 111.933Z" stroke="#F8F9FA" stroke-miterlimit="10"/>
<path d="M38.5317 111.674C39.6406 113.944 40.754 116.214 41.8629 118.484" stroke="#F8F9FA" stroke-miterlimit="10"/>
<path d="M40.4463 113.413C40.7269 114.787 41.0119 116.157 41.2925 117.53" stroke="#F8F9FA" stroke-miterlimit="10"/>
<path d="M42.4422 114.459C41.8321 115.394 41.2175 116.328 40.6074 117.259" stroke="#F8F9FA" stroke-miterlimit="10"/>
<path d="M38.9414 115.107C39.9167 116.21 40.8876 117.313 41.8629 118.415" stroke="#F8F9FA" stroke-miterlimit="10"/>
<path d="M35.8286 117.618C38.6165 115.786 42.3975 115.302 45.6262 116.355C45.506 116.225 45.3857 116.092 45.2655 115.962" stroke="#F8F9FA" stroke-miterlimit="10"/>
<path d="M159.055 107.481C155.243 106.321 151.427 105.161 148.291 104.184C145.517 104.291 143.366 107.05 144.314 109.285" stroke="#F8F9FA" stroke-miterlimit="10"/>
<path d="M154.588 115.477C151.083 113.425 147.579 111.372 144.074 109.32" stroke="#F8F9FA" stroke-miterlimit="10"/>
<path d="M159.238 107.641C155.889 108.805 153.84 112.208 154.682 115.218" stroke="#F8F9FA" stroke-miterlimit="10"/>
<path d="M159.358 111.635C161.384 111.899 163.411 112.158 165.437 112.421C167.472 112.685 169.035 110.117 167.615 108.839C166.194 107.561 163.121 108.766 159.358 111.635Z" stroke="#F8F9FA" stroke-miterlimit="10"/>
<path d="M158.102 113.555C160.48 114.676 161.683 117.343 160.81 119.545C159.937 121.746 157.082 123.23 154.401 122.875C155.991 119.796 157.581 116.721 158.102 113.555Z" stroke="#F8F9FA" stroke-miterlimit="10"/>
<path d="M160.77 112.906C161.945 114.333 163.611 115.39 165.17 116.515C166.728 117.641 168.247 118.911 168.946 120.552C169.65 122.189 169.302 124.272 167.659 125.298C166.011 126.324 163.134 125.599 162.867 123.871C162.319 120.346 161.767 116.82 160.168 113.417C160.119 113.246 160.075 113.078 160.77 112.906Z" stroke="#F8F9FA" stroke-miterlimit="10"/>
<path d="M163.17 112.788C164.84 114.207 167.374 114.55 169.73 114.543C172.081 114.535 174.473 114.253 176.762 114.718C179.051 115.184 181.287 116.664 181.469 118.671C181.652 120.681 178.726 122.581 176.833 121.387C172.277 118.503 167.721 115.622 163.17 112.788Z" stroke="#F8F9FA" stroke-miterlimit="10"/>
<path d="M163.268 113.097C160.494 112.448 157.724 111.803 154.949 111.155" stroke="#F8F9FA" stroke-miterlimit="10"/>
<path d="M160.489 113.322C159.055 112.669 157.617 112.017 156.183 111.361" stroke="#F8F9FA" stroke-miterlimit="10"/>
<path d="M158.298 114.024C157.817 113.036 157.332 112.048 156.851 111.059" stroke="#F8F9FA" stroke-miterlimit="10"/>
<path d="M159.857 111.262C158.245 111.239 156.628 111.22 155.016 111.197" stroke="#F8F9FA" stroke-miterlimit="10"/>
<path d="M159.46 107.614C159.429 110.621 157.55 113.474 154.593 115.008C154.789 115.008 154.98 115.008 155.176 115.004" stroke="#F8F9FA" stroke-miterlimit="10"/>
</svg>
