<svg width="204" height="204" viewBox="0 0 204 204" fill="none" xmlns="http://www.w3.org/2000/svg">
<path d="M35.958 117.976C37.2361 121.265 38.5187 124.554 39.5475 127.274C41.3511 129.083 45.2167 128.838 46.6908 126.82" stroke="black" stroke-width="3" stroke-miterlimit="10" stroke-linecap="round" stroke-linejoin="round"/>
<path d="M46.0625 116.073C46.3297 119.701 46.5969 123.333 46.8686 126.961" stroke="black" stroke-width="3" stroke-miterlimit="10" stroke-linecap="round" stroke-linejoin="round"/>
<path d="M35.9893 117.755C39.12 119.3 43.5111 118.587 45.7646 116.168" stroke="black" stroke-width="3" stroke-miterlimit="10" stroke-linecap="round" stroke-linejoin="round"/>
<path d="M39.5909 115.214C38.5844 113.684 37.578 112.154 36.5715 110.628C35.5605 109.091 32.2383 109.617 31.9354 111.361C31.637 113.108 34.6342 114.44 39.5909 115.214Z" stroke="black" stroke-width="3" stroke-miterlimit="10" stroke-linecap="round" stroke-linejoin="round"/>
<path d="M42.1299 114.882C41.7024 112.585 43.4125 110.132 45.9777 109.369C48.5429 108.606 51.6603 109.621 52.9874 111.647C49.1753 112.467 45.3631 113.287 42.1299 114.882Z" stroke="black" stroke-width="3" stroke-miterlimit="10" stroke-linecap="round" stroke-linejoin="round"/>
<path d="M39.8945 113.478C40.4824 111.807 40.4289 110.033 40.5091 108.289C40.5848 106.546 40.8208 104.737 41.8986 103.257C42.9763 101.777 45.1006 100.728 47.0601 101.204C49.0197 101.685 50.1197 104.074 48.6946 105.321C45.7909 107.862 42.8873 110.403 40.7362 113.577C40.6071 113.707 40.4779 113.841 39.8945 113.478Z" stroke="black" stroke-width="3" stroke-miterlimit="10" stroke-linecap="round" stroke-linejoin="round"/>
<path d="M38.3045 111.933C38.585 109.934 37.3381 108.007 35.8818 106.424C34.4255 104.84 32.6976 103.398 31.7134 101.567C30.7336 99.7356 30.7202 97.3129 32.4571 95.9547C34.1939 94.5964 37.7433 95.4014 37.8057 97.4159C37.9616 102.265 38.113 107.114 38.3045 111.933Z" stroke="black" stroke-width="3" stroke-miterlimit="10" stroke-linecap="round" stroke-linejoin="round"/>
<path d="M38.5322 111.674C39.6411 113.944 40.7545 116.214 41.8634 118.484" stroke="black" stroke-width="3" stroke-miterlimit="10" stroke-linecap="round" stroke-linejoin="round"/>
<path d="M40.4463 113.413C40.7269 114.787 41.0119 116.156 41.2925 117.53" stroke="black" stroke-width="3" stroke-miterlimit="10" stroke-linecap="round" stroke-linejoin="round"/>
<path d="M42.4422 114.459C41.8321 115.393 41.2175 116.328 40.6074 117.259" stroke="black" stroke-width="3" stroke-miterlimit="10" stroke-linecap="round" stroke-linejoin="round"/>
<path d="M38.9414 115.107C39.9167 116.21 40.8876 117.312 41.8629 118.415" stroke="black" stroke-width="3" stroke-miterlimit="10" stroke-linecap="round" stroke-linejoin="round"/>
<path d="M35.8281 117.618C38.616 115.786 42.397 115.302 45.6257 116.355C45.5055 116.225 45.3852 116.092 45.265 115.962" stroke="black" stroke-width="3" stroke-miterlimit="10" stroke-linecap="round" stroke-linejoin="round"/>
<path d="M159.054 107.481C155.242 106.321 151.426 105.161 148.29 104.184C145.516 104.291 143.365 107.05 144.313 109.285" stroke="black" stroke-width="3" stroke-miterlimit="10" stroke-linecap="round" stroke-linejoin="round"/>
<path d="M154.588 115.477C151.083 113.425 147.578 111.372 144.073 109.32" stroke="black" stroke-width="3" stroke-miterlimit="10" stroke-linecap="round" stroke-linejoin="round"/>
<path d="M159.237 107.641C155.888 108.805 153.84 112.208 154.681 115.218" stroke="black" stroke-width="3" stroke-miterlimit="10" stroke-linecap="round" stroke-linejoin="round"/>
<path d="M159.357 111.635C161.384 111.899 163.41 112.158 165.436 112.421C167.472 112.685 169.035 110.117 167.614 108.839C166.193 107.561 163.121 108.766 159.357 111.635Z" stroke="black" stroke-width="3" stroke-miterlimit="10" stroke-linecap="round" stroke-linejoin="round"/>
<path d="M158.102 113.555C160.48 114.676 161.683 117.343 160.81 119.545C159.937 121.746 157.082 123.23 154.401 122.875C155.991 119.796 157.581 116.721 158.102 113.555Z" stroke="black" stroke-width="3" stroke-miterlimit="10" stroke-linecap="round" stroke-linejoin="round"/>
<path d="M160.769 112.906C161.945 114.333 163.61 115.39 165.169 116.515C166.728 117.641 168.247 118.911 168.946 120.552C169.649 122.188 169.302 124.272 167.659 125.298C166.011 126.324 163.134 125.599 162.867 123.871C162.319 120.346 161.767 116.82 160.168 113.417C160.119 113.246 160.074 113.078 160.769 112.906Z" stroke="black" stroke-width="3" stroke-miterlimit="10" stroke-linecap="round" stroke-linejoin="round"/>
<path d="M163.17 112.788C164.84 114.207 167.374 114.55 169.73 114.543C172.081 114.535 174.473 114.253 176.762 114.718C179.051 115.184 181.287 116.664 181.469 118.671C181.652 120.681 178.726 122.581 176.833 121.387C172.277 118.503 167.721 115.622 163.17 112.788Z" stroke="black" stroke-width="3" stroke-miterlimit="10" stroke-linecap="round" stroke-linejoin="round"/>
<path d="M163.267 113.097C160.493 112.448 157.723 111.803 154.948 111.155" stroke="black" stroke-width="3" stroke-miterlimit="10" stroke-linecap="round" stroke-linejoin="round"/>
<path d="M160.489 113.322C159.055 112.669 157.617 112.017 156.183 111.361" stroke="black" stroke-width="3" stroke-miterlimit="10" stroke-linecap="round" stroke-linejoin="round"/>
<path d="M158.297 114.024C157.816 113.036 157.331 112.047 156.85 111.059" stroke="black" stroke-width="3" stroke-miterlimit="10" stroke-linecap="round" stroke-linejoin="round"/>
<path d="M159.857 111.262C158.244 111.239 156.628 111.22 155.016 111.197" stroke="black" stroke-width="3" stroke-miterlimit="10" stroke-linecap="round" stroke-linejoin="round"/>
<path d="M159.46 107.614C159.429 110.621 157.55 113.474 154.593 115.008C154.789 115.008 154.98 115.008 155.176 115.004" stroke="black" stroke-width="3" stroke-miterlimit="10" stroke-linecap="round" stroke-linejoin="round"/>
<path d="M122.217 71.3195L115.39 74.9211" stroke="black" stroke-width="3" stroke-miterlimit="10" stroke-linecap="round" stroke-linejoin="round"/>
<path d="M137.715 78.6906L130.46 82.4181" stroke="black" stroke-width="3" stroke-miterlimit="10" stroke-linecap="round" stroke-linejoin="round"/>
<path d="M115.136 74.8525L130.509 82.5593" stroke="black" stroke-width="3" stroke-miterlimit="10" stroke-linecap="round" stroke-linejoin="round"/>
<path d="M122.216 71.3195L137.607 78.8356" stroke="black" stroke-width="3" stroke-miterlimit="10" stroke-linecap="round" stroke-linejoin="round"/>
<path d="M2 52.247L6.67168 55.6426" stroke="black" stroke-width="3" stroke-miterlimit="10" stroke-linecap="round" stroke-linejoin="round"/>
<path d="M7.32227 150.116C33.9138 137.656 59.8596 124.165 86.3442 111.51" stroke="black" stroke-width="3" stroke-miterlimit="10" stroke-linecap="round" stroke-linejoin="round"/>
<path d="M134.2 119.606C154.82 129.285 175.635 138.667 195.885 148.911" stroke="black" stroke-width="3" stroke-miterlimit="10" stroke-linecap="round" stroke-linejoin="round"/>
<path d="M170.282 74.7571V88.5875" stroke="black" stroke-width="3" stroke-miterlimit="10" stroke-linecap="round" stroke-linejoin="round"/>
<path d="M181.982 80.7585L181.79 94.2035" stroke="black" stroke-width="3" stroke-miterlimit="10" stroke-linecap="round" stroke-linejoin="round"/>
<path d="M170.27 88.3928L181.684 93.9669" stroke="black" stroke-width="3" stroke-miterlimit="10" stroke-linecap="round" stroke-linejoin="round"/>
<path d="M170.27 74.9135L182.085 81.0294" stroke="black" stroke-width="3" stroke-miterlimit="10" stroke-linecap="round" stroke-linejoin="round"/>
<path d="M173.342 76.4015L176.94 74.4977" stroke="black" stroke-width="3" stroke-miterlimit="10" stroke-linecap="round" stroke-linejoin="round"/>
<path d="M180.04 79.9726L176.753 74.4481" stroke="black" stroke-width="3" stroke-miterlimit="10" stroke-linecap="round" stroke-linejoin="round"/>
<path d="M176.392 87.7137C176.397 87.7214 176.855 87.6336 176.86 87.6298C178.597 86.1228 179.371 86.3975 179.282 84.9973C179.18 83.4902 177.519 81.3232 175.684 82.7577C174.045 78.4045 169.748 82.029 176.392 87.7137Z" stroke="black" stroke-width="3" stroke-miterlimit="10" stroke-linecap="round" stroke-linejoin="round"/>
<path d="M150.803 47.2185L150.634 69.45" stroke="black" stroke-width="3" stroke-miterlimit="10" stroke-linecap="round" stroke-linejoin="round"/>
<path d="M162.654 52.6438L162.538 74.9631" stroke="black" stroke-width="3" stroke-miterlimit="10" stroke-linecap="round" stroke-linejoin="round"/>
<path d="M150.455 69.1525L162.332 74.7991" stroke="black" stroke-width="3" stroke-miterlimit="10" stroke-linecap="round" stroke-linejoin="round"/>
<path d="M150.607 47.2681L162.592 52.743" stroke="black" stroke-width="3" stroke-miterlimit="10" stroke-linecap="round" stroke-linejoin="round"/>
<path d="M153.777 66.8938L153.902 52.5904" stroke="black" stroke-width="3" stroke-miterlimit="10" stroke-linecap="round" stroke-linejoin="round"/>
<path d="M159.581 55.3107L159.719 69.4271" stroke="black" stroke-width="3" stroke-miterlimit="10" stroke-linecap="round" stroke-linejoin="round"/>
<path d="M153.622 66.7946L159.719 69.4271" stroke="black" stroke-width="3" stroke-miterlimit="10" stroke-linecap="round" stroke-linejoin="round"/>
<path d="M153.902 52.5904L159.719 55.3107" stroke="black" stroke-width="3" stroke-miterlimit="10" stroke-linecap="round" stroke-linejoin="round"/>
<path d="M131.537 50.2135L136.454 52.7621" stroke="black" stroke-width="3" stroke-miterlimit="10" stroke-linecap="round" stroke-linejoin="round"/>
<path d="M111.626 45.1888L111.728 50.5302" stroke="black" stroke-width="3" stroke-miterlimit="10" stroke-linecap="round" stroke-linejoin="round"/>
<path d="M127.556 57.058L136.436 52.6896" stroke="black" stroke-width="3" stroke-miterlimit="10" stroke-linecap="round" stroke-linejoin="round"/>
<path d="M122.965 54.5972L127.743 57.0772" stroke="black" stroke-width="3" stroke-miterlimit="10" stroke-linecap="round" stroke-linejoin="round"/>
<path d="M111.358 45.1964L121.383 49.7671" stroke="black" stroke-width="3" stroke-miterlimit="10" stroke-linecap="round" stroke-linejoin="round"/>
<path d="M122.27 39.7368L111.685 45.1964" stroke="black" stroke-width="3" stroke-miterlimit="10" stroke-linecap="round" stroke-linejoin="round"/>
<path d="M131.613 44.7004L122.061 39.7368" stroke="black" stroke-width="3" stroke-miterlimit="10" stroke-linecap="round" stroke-linejoin="round"/>
<path d="M121.099 55.5091L121.232 49.6908" stroke="black" stroke-width="3" stroke-miterlimit="10" stroke-linecap="round" stroke-linejoin="round"/>
<path d="M131.364 44.6699L121.379 49.6946" stroke="black" stroke-width="3" stroke-miterlimit="10" stroke-linecap="round" stroke-linejoin="round"/>
<path d="M131.538 50.2135L131.427 44.6813" stroke="black" stroke-width="3" stroke-miterlimit="10" stroke-linecap="round" stroke-linejoin="round"/>
<path d="M111.493 50.595L121.148 55.5358" stroke="black" stroke-width="3" stroke-miterlimit="10" stroke-linecap="round" stroke-linejoin="round"/>
<path d="M131.56 50.3585L121.237 55.4481" stroke="black" stroke-width="3" stroke-miterlimit="10" stroke-linecap="round" stroke-linejoin="round"/>
<path d="M111.626 45.7954L108.633 47.5008" stroke="black" stroke-width="3" stroke-miterlimit="10" stroke-linecap="round" stroke-linejoin="round"/>
<path d="M111.697 48.9011L108.633 47.5009" stroke="black" stroke-width="3" stroke-miterlimit="10" stroke-linecap="round" stroke-linejoin="round"/>
<path d="M121.099 52.4492L131.377 47.6153" stroke="black" stroke-width="3" stroke-miterlimit="10" stroke-linecap="round" stroke-linejoin="round"/>
<path d="M111.729 48.2028L121.099 52.4492" stroke="black" stroke-width="3" stroke-miterlimit="10" stroke-linecap="round" stroke-linejoin="round"/>
<path d="M11.3965 69.7248L93.2064 28.9663" stroke="black" stroke-width="3" stroke-miterlimit="10" stroke-linecap="round" stroke-linejoin="round"/>
<path d="M95.6389 31.8163L95.5898 29.5272" stroke="black" stroke-width="3" stroke-miterlimit="10" stroke-linecap="round" stroke-linejoin="round"/>
<path d="M93.0547 28.9777L95.5932 29.6835" stroke="black" stroke-width="3" stroke-miterlimit="10" stroke-linecap="round" stroke-linejoin="round"/>
<path d="M11.4588 69.6866L11.3965 71.4187" stroke="black" stroke-width="3" stroke-miterlimit="10" stroke-linecap="round" stroke-linejoin="round"/>
<path d="M13.4805 72.2771L11.2627 71.186" stroke="black" stroke-width="3" stroke-miterlimit="10" stroke-linecap="round" stroke-linejoin="round"/>
<path d="M95.6383 31.8163L13.5479 72.2962" stroke="black" stroke-width="3" stroke-miterlimit="10" stroke-linecap="round" stroke-linejoin="round"/>
<path d="M16.0021 120.281L15.8418 71.4454" stroke="black" stroke-width="3" stroke-miterlimit="10" stroke-linecap="round" stroke-linejoin="round"/>
<path d="M20.9277 118.247L21.0165 68.6145" stroke="black" stroke-width="3" stroke-miterlimit="10" stroke-linecap="round" stroke-linejoin="round"/>
<path d="M26.4453 116.466L26.5252 65.8942" stroke="black" stroke-width="3" stroke-miterlimit="10" stroke-linecap="round" stroke-linejoin="round"/>
<path d="M30.8223 115.844L31.1028 63.6394" stroke="black" stroke-width="3" stroke-miterlimit="10" stroke-linecap="round" stroke-linejoin="round"/>
<path d="M35.886 94.9971L35.7568 61.4151" stroke="black" stroke-width="3" stroke-miterlimit="10" stroke-linecap="round" stroke-linejoin="round"/>
<path d="M40.9004 105.378L41.181 58.7444" stroke="black" stroke-width="3" stroke-miterlimit="10" stroke-linecap="round" stroke-linejoin="round"/>
<path d="M45.9957 100.968L45.8398 56.5316" stroke="black" stroke-width="3" stroke-miterlimit="10" stroke-linecap="round" stroke-linejoin="round"/>
<path d="M63.8096 98.3087L63.8586 47.4856" stroke="black" stroke-width="3" stroke-miterlimit="10" stroke-linecap="round" stroke-linejoin="round"/>
<path d="M68.6725 97.0764L68.5479 45.1888" stroke="black" stroke-width="3" stroke-miterlimit="10" stroke-linecap="round" stroke-linejoin="round"/>
<path d="M73.754 96.0043L73.4512 42.7814" stroke="black" stroke-width="3" stroke-miterlimit="10" stroke-linecap="round" stroke-linejoin="round"/>
<path d="M78.1543 95.7106L78.5106 40.3892" stroke="black" stroke-width="3" stroke-miterlimit="10" stroke-linecap="round" stroke-linejoin="round"/>
<path d="M83.3066 95.5007L83.3821 38.081" stroke="black" stroke-width="3" stroke-miterlimit="10" stroke-linecap="round" stroke-linejoin="round"/>
<path d="M88.8997 94.9055C88.8061 75.2569 87.9154 55.036 88.1915 35.2615" stroke="black" stroke-width="3" stroke-miterlimit="10" stroke-linecap="round" stroke-linejoin="round"/>
<path d="M94.4449 90.8651C95.0416 71.4416 94.151 51.9837 94.3247 32.4648" stroke="black" stroke-width="3" stroke-miterlimit="10" stroke-linecap="round" stroke-linejoin="round"/>
<path d="M15.6191 71.392C17.6855 73.2691 21.5601 71.5446 20.9767 69.0189" stroke="black" stroke-width="3" stroke-miterlimit="10" stroke-linecap="round" stroke-linejoin="round"/>
<path d="M26.5157 66.4551C26.7696 68.9617 23.1667 70.7587 21.0469 68.8358" stroke="black" stroke-width="3" stroke-miterlimit="10" stroke-linecap="round" stroke-linejoin="round"/>
<path d="M30.8489 63.9828C31.94 66.1728 28.0967 68.3742 26.5469 66.1613" stroke="black" stroke-width="3" stroke-miterlimit="10" stroke-linecap="round" stroke-linejoin="round"/>
<path d="M35.2897 61.7547C36.9108 64.0019 32.1901 66.5581 31.3439 63.6738C31.2549 63.7654 31.1658 63.8569 31.0723 63.9485" stroke="black" stroke-width="3" stroke-miterlimit="10" stroke-linecap="round" stroke-linejoin="round"/>
<path d="M40.8516 59.042C41.5552 61.747 37.5338 64.4864 35.7568 61.4151" stroke="black" stroke-width="3" stroke-miterlimit="10" stroke-linecap="round" stroke-linejoin="round"/>
<path d="M45.8401 56.5316C47.0425 59.4006 42.5089 62.3994 41.4668 58.4163" stroke="black" stroke-width="3" stroke-miterlimit="10" stroke-linecap="round" stroke-linejoin="round"/>
<path d="M68.4501 45.4864C68.8197 47.5962 65.7602 49.1109 63.8096 47.7832" stroke="black" stroke-width="3" stroke-miterlimit="10" stroke-linecap="round" stroke-linejoin="round"/>
<path d="M73.3087 42.9683C74.097 45.3262 70.5654 47.2605 68.6104 45.33" stroke="black" stroke-width="3" stroke-miterlimit="10" stroke-linecap="round" stroke-linejoin="round"/>
<path d="M78.4435 40.5876C79.263 43.0828 75.5666 45.1735 73.5225 43.0484" stroke="black" stroke-width="3" stroke-miterlimit="10" stroke-linecap="round" stroke-linejoin="round"/>
<path d="M83.338 38.1191C84.0015 40.5608 80.4878 42.5829 78.4971 40.4845" stroke="black" stroke-width="3" stroke-miterlimit="10" stroke-linecap="round" stroke-linejoin="round"/>
<path d="M88.1299 35.6392C89.1853 38.3251 85.2841 40.8928 83.4805 37.9283" stroke="black" stroke-width="3" stroke-miterlimit="10" stroke-linecap="round" stroke-linejoin="round"/>
<path d="M93.9193 32.8578C94.4804 35.4484 90.7974 37.5048 88.5039 35.5705" stroke="black" stroke-width="3" stroke-miterlimit="10" stroke-linecap="round" stroke-linejoin="round"/>
<path d="M2.02637 152.917V52.2165" stroke="black" stroke-width="3" stroke-miterlimit="10" stroke-linecap="round" stroke-linejoin="round"/>
<path d="M48.6895 105.317L63.9025 98.0493" stroke="black" stroke-width="3" stroke-miterlimit="10" stroke-linecap="round" stroke-linejoin="round"/>
<path d="M46.4229 63.0633L63.8403 54.5743" stroke="black" stroke-width="3" stroke-miterlimit="10" stroke-linecap="round" stroke-linejoin="round"/>
<path d="M99.6017 201.905L2.00879 152.909" stroke="black" stroke-width="3" stroke-miterlimit="10" stroke-linecap="round" stroke-linejoin="round"/>
<path d="M102.447 2L201.933 50.801" stroke="black" stroke-width="3" stroke-miterlimit="10" stroke-linecap="round" stroke-linejoin="round"/>
<path d="M202 151.719L201.934 50.801" stroke="black" stroke-width="3" stroke-miterlimit="10" stroke-linecap="round" stroke-linejoin="round"/>
<path d="M102.447 2.00378L2.02637 52.2165" stroke="black" stroke-width="3" stroke-miterlimit="10" stroke-linecap="round" stroke-linejoin="round"/>
<path d="M102.447 2C101.864 18.2339 101.904 34.4641 101.944 50.7095L102.447 2Z" fill="#030303" stroke="black" stroke-width="3" stroke-miterlimit="10" stroke-linecap="round" stroke-linejoin="round"/>
<path d="M101.708 89.6595C101.997 76.6647 101.979 63.6814 101.944 50.7095L101.543 89.6748C101.596 89.671 101.65 89.6633 101.708 89.6595Z" fill="#030303" stroke="black" stroke-width="3" stroke-miterlimit="10" stroke-linecap="round" stroke-linejoin="round"/>
<path opacity="0.9686" d="M202 151.719L99.6016 201.905" stroke="black" stroke-width="3" stroke-miterlimit="10" stroke-linecap="round" stroke-linejoin="round"/>
<path d="M195.885 54.1967V148.911" stroke="black" stroke-width="3" stroke-miterlimit="10" stroke-linecap="round" stroke-linejoin="round"/>
<path d="M102.426 7.73431L196.117 54.1317" stroke="black" stroke-width="3" stroke-miterlimit="10" stroke-linecap="round" stroke-linejoin="round"/>
<path d="M6.43555 55.4557L102.105 7.79156" stroke="black" stroke-width="3" stroke-miterlimit="10" stroke-linecap="round" stroke-linejoin="round"/>
<path d="M6.95251 150.212L6.40918 55.593" stroke="black" stroke-width="3" stroke-miterlimit="10" stroke-linecap="round" stroke-linejoin="round"/>
<path d="M99.7402 196.376L6.80566 150.151" stroke="black" stroke-width="3" stroke-miterlimit="10" stroke-linecap="round" stroke-linejoin="round"/>
<path d="M195.885 148.911L99.7393 196.376" stroke="black" stroke-width="3" stroke-miterlimit="10" stroke-linecap="round" stroke-linejoin="round"/>
<path d="M195.885 54.1966L201.933 50.801" stroke="black" stroke-width="3" stroke-miterlimit="10" stroke-linecap="round" stroke-linejoin="round"/>
<path d="M195.885 148.911L201.906 151.677" stroke="black" stroke-width="3" stroke-miterlimit="10" stroke-linecap="round" stroke-linejoin="round"/>
<path d="M99.7529 196.128L99.499 202" stroke="black" stroke-width="3" stroke-miterlimit="10" stroke-linecap="round" stroke-linejoin="round"/>
<path d="M2.17383 152.89L6.9791 150.307" stroke="black" stroke-width="3" stroke-miterlimit="10" stroke-linecap="round" stroke-linejoin="round"/>
<path d="M45.8311 94.9818C50.3335 90.9376 57.1873 88.9193 63.6404 89.732" stroke="black" stroke-width="3" stroke-miterlimit="10" stroke-linecap="round" stroke-linejoin="round"/>
<path d="M57.4993 80.6135C55.4552 81.0065 53.4155 81.3995 51.3714 81.7924C49.1491 77.8322 49.3094 73.1738 51.5807 69.5416C55.2548 72.3001 57.4815 76.4282 57.4993 80.6135Z" stroke="black" stroke-width="3" stroke-miterlimit="10" stroke-linecap="round" stroke-linejoin="round"/>
<path d="M49.9102 73.7308C51.6114 73.4713 53.3171 73.2119 55.0183 72.9525" stroke="black" stroke-width="3" stroke-miterlimit="10" stroke-linecap="round" stroke-linejoin="round"/>
<path d="M52.1149 81.6895C51.8655 82.4792 51.6162 83.269 51.3623 84.0587" stroke="black" stroke-width="3" stroke-miterlimit="10" stroke-linecap="round" stroke-linejoin="round"/>
<path d="M56.9648 80.8271C57.6329 81.5177 58.3009 82.2121 58.9689 82.9027C58.9689 82.9103 58.9689 82.9179 58.9689 82.9217" stroke="black" stroke-width="3" stroke-miterlimit="10" stroke-linecap="round" stroke-linejoin="round"/>
<path d="M51.3037 83.9137C53.9312 84.0358 56.59 83.6657 59.0438 82.8378" stroke="black" stroke-width="3" stroke-miterlimit="10" stroke-linecap="round" stroke-linejoin="round"/>
<path d="M53.4909 84.0129C53.1168 84.9477 52.7471 85.8862 52.373 86.821C52.9832 86.4471 53.5933 86.0694 54.1811 85.8137C54.5241 86.6798 54.8625 87.5421 55.2054 88.4081C55.5528 87.6909 55.9046 86.9698 56.2297 86.2945C56.773 86.6531 57.3164 87.0156 57.8597 87.3742C57.8686 86.7599 57.8775 86.1457 57.971 85.4475C58.6702 85.6153 59.365 85.7832 60.0642 85.9511C59.552 84.8981 58.6658 83.9862 57.5524 83.3682" stroke="black" stroke-width="3" stroke-miterlimit="10" stroke-linecap="round" stroke-linejoin="round"/>
<path d="M51.9189 82.0824C53.776 82.4029 55.7667 82.0977 57.3789 81.243" stroke="black" stroke-width="3" stroke-miterlimit="10" stroke-linecap="round" stroke-linejoin="round"/>
<path d="M51.6787 83.0858C53.9054 83.3033 56.199 83.0019 58.252 82.2197" stroke="black" stroke-width="3" stroke-miterlimit="10" stroke-linecap="round" stroke-linejoin="round"/>
<path d="M53.2364 75.3141C55.659 75.0509 56.336 78.229 53.9088 78.7021C51.4016 79.1637 50.3951 75.7223 53.2364 75.3141Z" stroke="black" stroke-width="3" stroke-miterlimit="10" stroke-linecap="round" stroke-linejoin="round"/>
<path d="M57.6641 80.3045C59.2629 80.2854 60.8572 80.2701 62.456 80.251" stroke="black" stroke-width="3" stroke-miterlimit="10" stroke-linecap="round" stroke-linejoin="round"/>
<path d="M51.1881 81.6169C49.7229 81.9565 48.2533 82.2961 46.7881 82.6318" stroke="black" stroke-width="3" stroke-miterlimit="10" stroke-linecap="round" stroke-linejoin="round"/>
<path d="M56.9561 76.6037C58.114 76.5007 59.2852 76.5197 60.4431 76.6533C61.1557 77.8398 61.8638 79.0264 62.5051 80.274C62.5585 80.232 62.6119 80.1862 62.6654 80.1481" stroke="black" stroke-width="3" stroke-miterlimit="10" stroke-linecap="round" stroke-linejoin="round"/>
<path d="M49.8877 77.9276C49.0549 78.0573 48.2311 78.2481 47.5675 78.4236C47.2201 79.8314 46.8728 81.2354 46.5254 82.6433C46.7481 82.6662 46.9707 82.6852 47.1979 82.6929" stroke="black" stroke-width="3" stroke-miterlimit="10" stroke-linecap="round" stroke-linejoin="round"/>
<path d="M81.7168 105.489C84.4957 101.266 87.2747 97.0459 90.0581 92.8224C96.7694 88.9499 105.227 88.6179 112.397 90.8193C124.581 105.939 135.59 121.277 145.165 137.415C139.246 137.442 133.328 137.469 127.409 137.491" stroke="black" stroke-width="3" stroke-miterlimit="10" stroke-linecap="round" stroke-linejoin="round"/>
<path d="M145.009 137.35C141.17 142.402 137.327 147.453 133.176 152.94C127.427 153.184 121.673 153.424 115.924 153.668" stroke="black" stroke-width="3" stroke-miterlimit="10" stroke-linecap="round" stroke-linejoin="round"/>
<path d="M127.605 137.789C123.869 143.134 120.128 148.483 116.392 153.828" stroke="black" stroke-width="3" stroke-miterlimit="10" stroke-linecap="round" stroke-linejoin="round"/>
<path d="M119.41 149.498C124.723 149.7 130.041 149.903 135.354 150.105" stroke="black" stroke-width="3" stroke-miterlimit="10" stroke-linecap="round" stroke-linejoin="round"/>
<path d="M81.9434 105.462C93.4466 121.376 104.954 137.285 116.458 153.199" stroke="black" stroke-width="3" stroke-miterlimit="10" stroke-linecap="round" stroke-linejoin="round"/>
<path d="M83.9971 102.04C95.7854 117.839 107.578 133.638 119.366 149.437" stroke="black" stroke-width="3" stroke-miterlimit="10" stroke-linecap="round" stroke-linejoin="round"/>
<path d="M112.811 148.346C112.058 149.571 111.301 150.795 110.54 151.925C110.036 151.234 109.533 150.547 109.025 149.857" stroke="black" stroke-width="3" stroke-miterlimit="10" stroke-linecap="round" stroke-linejoin="round"/>
<path d="M110.37 144.817C109.916 146.534 109.466 148.251 109.012 149.964C109.065 150.006 109.119 150.048 109.168 150.093" stroke="black" stroke-width="3" stroke-miterlimit="10" stroke-linecap="round" stroke-linejoin="round"/>
<path d="M85.3411 110.254C83.9294 110.407 82.5221 110.56 81.1104 110.712" stroke="black" stroke-width="3" stroke-miterlimit="10" stroke-linecap="round" stroke-linejoin="round"/>
<path d="M82.336 106.13C81.6011 107.313 80.8663 108.495 80.2295 109.648C80.5991 109.991 80.9732 110.334 81.3429 110.678" stroke="black" stroke-width="3" stroke-miterlimit="10" stroke-linecap="round" stroke-linejoin="round"/>
<path d="M90.9441 92.2234C93.0461 92.4523 95.0234 93.6007 96.0611 95.4091C93.34 99.3122 90.6234 103.215 87.9023 107.118" stroke="black" stroke-width="3" stroke-miterlimit="10" stroke-linecap="round" stroke-linejoin="round"/>
<path d="M96.0342 95.3214C101.111 95.3786 106.188 95.4358 111.261 95.493" stroke="black" stroke-width="3" stroke-miterlimit="10" stroke-linecap="round" stroke-linejoin="round"/>
<path d="M100.64 100.567C102.492 98.8657 103.592 96.3896 105.939 95.2794C105.712 95.4014 105.485 95.5274 105.258 95.6494" stroke="black" stroke-width="3" stroke-miterlimit="10" stroke-linecap="round" stroke-linejoin="round"/>
<path d="M92.2002 101.082C95.0994 100.861 98.0031 100.64 100.76 100.64C108.433 111.613 116.106 122.581 123.78 133.554" stroke="black" stroke-width="3" stroke-miterlimit="10" stroke-linecap="round" stroke-linejoin="round"/>
<path d="M110.433 94.5125C122.136 106.527 131.885 119.853 139.309 133.978" stroke="black" stroke-width="3" stroke-miterlimit="10" stroke-linecap="round" stroke-linejoin="round"/>
<path d="M140.564 134.195C121.516 131.532 124.607 131.326 115.589 144.386C115.589 144.386 122.14 134.744 122.233 134.748C124.113 135.66 125.992 136.568 127.871 137.48" stroke="black" stroke-width="3" stroke-miterlimit="10" stroke-linecap="round" stroke-linejoin="round"/>
<path d="M81.4724 151.635C82.6481 155.854 77.1124 160.906 71.6258 160.616C66.7537 157.85 66.3752 151.902 71.0646 147.346C75.812 145.607 80.5683 148.384 81.4724 151.635Z" stroke="black" stroke-width="3" stroke-miterlimit="10" stroke-linecap="round" stroke-linejoin="round"/>
<path d="M76.6885 147.198C81.182 145.278 85.6755 143.356 90.1691 141.436" stroke="black" stroke-width="3" stroke-miterlimit="10" stroke-linecap="round" stroke-linejoin="round"/>
<path d="M79.2676 148.354C83.0797 146.56 86.8919 144.771 90.7085 142.978C90.4769 142.402 90.2498 141.826 90.0182 141.253" stroke="black" stroke-width="3" stroke-miterlimit="10" stroke-linecap="round" stroke-linejoin="round"/>
<path d="M86.7983 153.054C86.4866 153.126 86.1704 153.199 85.2842 153.401C85.5158 153.344 85.7473 153.29 86.7983 153.054Z" stroke="black" stroke-width="3" stroke-miterlimit="10" stroke-linecap="round" stroke-linejoin="round"/>
<path d="M78.8535 158.391C82.924 158.54 86.9944 158.685 91.0604 158.834" stroke="black" stroke-width="3" stroke-miterlimit="10" stroke-linecap="round" stroke-linejoin="round"/>
<path d="M80.042 156.919C84.5444 157.247 89.0469 157.575 93.5449 157.903" stroke="black" stroke-width="3" stroke-miterlimit="10" stroke-linecap="round" stroke-linejoin="round"/>
<path d="M91.0869 158.899C91.893 158.556 92.6991 158.208 93.5051 157.865" stroke="black" stroke-width="3" stroke-miterlimit="10" stroke-linecap="round" stroke-linejoin="round"/>
<path d="M81.3652 153.836C82.7191 153.687 84.0685 153.538 85.4223 153.39L85.0171 153.294" stroke="black" stroke-width="3" stroke-miterlimit="10" stroke-linecap="round" stroke-linejoin="round"/>
<path d="M81.2266 152.348C82.9144 152.249 85.0922 151.974 87.1229 151.795C87.0294 152.241 86.9359 152.692 86.8424 153.138" stroke="black" stroke-width="3" stroke-miterlimit="10" stroke-linecap="round" stroke-linejoin="round"/>
<path d="M35.958 117.976C37.2361 121.265 38.5187 124.554 39.5475 127.274C41.3511 129.083 45.2167 128.838 46.6908 126.82" stroke="black" stroke-width="3" stroke-miterlimit="10" stroke-linecap="round" stroke-linejoin="round"/>
<path d="M46.0625 116.073C46.3297 119.701 46.5969 123.333 46.8686 126.961" stroke="black" stroke-width="3" stroke-miterlimit="10" stroke-linecap="round" stroke-linejoin="round"/>
<path d="M35.9893 117.755C39.12 119.3 43.5111 118.587 45.7646 116.168" stroke="black" stroke-width="3" stroke-miterlimit="10" stroke-linecap="round" stroke-linejoin="round"/>
<path d="M39.5909 115.214C38.5844 113.684 37.578 112.154 36.5715 110.628C35.5605 109.091 32.2383 109.617 31.9354 111.361C31.637 113.108 34.6342 114.44 39.5909 115.214Z" stroke="black" stroke-width="3" stroke-miterlimit="10" stroke-linecap="round" stroke-linejoin="round"/>
<path d="M42.1299 114.882C41.7024 112.585 43.4125 110.132 45.9777 109.369C48.5429 108.606 51.6603 109.621 52.9874 111.647C49.1753 112.467 45.3631 113.287 42.1299 114.882Z" stroke="black" stroke-width="3" stroke-miterlimit="10" stroke-linecap="round" stroke-linejoin="round"/>
<path d="M39.8945 113.478C40.4824 111.807 40.4289 110.033 40.5091 108.289C40.5848 106.546 40.8208 104.737 41.8986 103.257C42.9763 101.777 45.1006 100.728 47.0601 101.204C49.0197 101.685 50.1197 104.074 48.6946 105.321C45.7909 107.862 42.8873 110.403 40.7362 113.577C40.6071 113.707 40.4779 113.841 39.8945 113.478Z" stroke="black" stroke-width="3" stroke-miterlimit="10" stroke-linecap="round" stroke-linejoin="round"/>
<path d="M38.3045 111.933C38.585 109.934 37.3381 108.007 35.8818 106.424C34.4255 104.84 32.6976 103.398 31.7134 101.567C30.7336 99.7356 30.7202 97.3129 32.4571 95.9547C34.1939 94.5964 37.7433 95.4014 37.8057 97.4159C37.9616 102.265 38.113 107.114 38.3045 111.933Z" stroke="black" stroke-width="3" stroke-miterlimit="10" stroke-linecap="round" stroke-linejoin="round"/>
<path d="M38.5322 111.674C39.6411 113.944 40.7545 116.214 41.8634 118.484" stroke="black" stroke-width="3" stroke-miterlimit="10" stroke-linecap="round" stroke-linejoin="round"/>
<path d="M40.4463 113.413C40.7269 114.787 41.0119 116.156 41.2925 117.53" stroke="black" stroke-width="3" stroke-miterlimit="10" stroke-linecap="round" stroke-linejoin="round"/>
<path d="M42.4422 114.459C41.8321 115.393 41.2175 116.328 40.6074 117.259" stroke="black" stroke-width="3" stroke-miterlimit="10" stroke-linecap="round" stroke-linejoin="round"/>
<path d="M38.9414 115.107C39.9167 116.21 40.8876 117.312 41.8629 118.415" stroke="black" stroke-width="3" stroke-miterlimit="10" stroke-linecap="round" stroke-linejoin="round"/>
<path d="M35.8281 117.618C38.616 115.786 42.397 115.302 45.6257 116.355C45.5055 116.225 45.3852 116.092 45.265 115.962" stroke="black" stroke-width="3" stroke-miterlimit="10" stroke-linecap="round" stroke-linejoin="round"/>
<path d="M122.217 71.3195L115.39 74.9211" stroke="black" stroke-miterlimit="10"/>
<path d="M137.715 78.6906L130.46 82.4181" stroke="black" stroke-miterlimit="10"/>
<path d="M115.136 74.8525L130.509 82.5593" stroke="black" stroke-miterlimit="10"/>
<path d="M122.216 71.3195L137.607 78.8356" stroke="black" stroke-miterlimit="10"/>
<path d="M2 52.247L6.67168 55.6426" stroke="#030303" stroke-miterlimit="10"/>
<path d="M7.32227 150.116C33.9138 137.656 59.8596 124.165 86.3442 111.51" stroke="black" stroke-miterlimit="10"/>
<path d="M134.2 119.606C154.82 129.285 175.635 138.667 195.885 148.911" stroke="black" stroke-miterlimit="10"/>
<path d="M170.282 74.7571V88.5875" stroke="black" stroke-miterlimit="10"/>
<path d="M181.982 80.7585L181.79 94.2035" stroke="black" stroke-miterlimit="10"/>
<path d="M170.27 88.3928L181.684 93.9669" stroke="black" stroke-miterlimit="10"/>
<path d="M170.27 74.9135L182.085 81.0294" stroke="black" stroke-miterlimit="10"/>
<path d="M173.342 76.4015L176.94 74.4977" stroke="black" stroke-miterlimit="10"/>
<path d="M180.04 79.9726L176.753 74.4481" stroke="black" stroke-miterlimit="10"/>
<path d="M176.392 87.7137C176.397 87.7214 176.855 87.6336 176.86 87.6298C178.597 86.1228 179.371 86.3975 179.282 84.9973C179.18 83.4902 177.519 81.3232 175.684 82.7577C174.045 78.4045 169.748 82.029 176.392 87.7137Z" stroke="black" stroke-miterlimit="10"/>
<path d="M150.803 47.2185L150.634 69.45" stroke="black" stroke-miterlimit="10"/>
<path d="M162.654 52.6438L162.538 74.9631" stroke="black" stroke-miterlimit="10"/>
<path d="M150.455 69.1525L162.332 74.7991" stroke="black" stroke-miterlimit="10"/>
<path d="M150.607 47.2681L162.592 52.743" stroke="black" stroke-miterlimit="10"/>
<path d="M153.777 66.8938L153.902 52.5904" stroke="black" stroke-miterlimit="10"/>
<path d="M159.581 55.3107L159.719 69.4271" stroke="black" stroke-miterlimit="10"/>
<path d="M153.622 66.7946L159.719 69.4271" stroke="black" stroke-miterlimit="10"/>
<path d="M153.902 52.5904L159.719 55.3107" stroke="black" stroke-miterlimit="10"/>
<path d="M131.537 50.2135L136.454 52.7621" stroke="black" stroke-miterlimit="10"/>
<path d="M111.626 45.1888L111.728 50.5302" stroke="black" stroke-miterlimit="10"/>
<path d="M127.556 57.058L136.436 52.6896" stroke="black" stroke-miterlimit="10"/>
<path d="M122.965 54.5972L127.743 57.0772" stroke="black" stroke-miterlimit="10"/>
<path d="M111.358 45.1964L121.383 49.7671" stroke="black" stroke-miterlimit="10"/>
<path d="M122.27 39.7368L111.685 45.1964" stroke="black" stroke-miterlimit="10"/>
<path d="M131.613 44.7004L122.061 39.7368" stroke="black" stroke-miterlimit="10"/>
<path d="M121.099 55.5091L121.232 49.6908" stroke="black" stroke-miterlimit="10"/>
<path d="M131.364 44.6699L121.379 49.6946" stroke="black" stroke-miterlimit="10"/>
<path d="M131.538 50.2135L131.427 44.6813" stroke="black" stroke-miterlimit="10"/>
<path d="M111.493 50.595L121.148 55.5358" stroke="black" stroke-miterlimit="10"/>
<path d="M131.56 50.3585L121.237 55.4481" stroke="black" stroke-miterlimit="10"/>
<path d="M111.626 45.7954L108.633 47.5008" stroke="black" stroke-miterlimit="10"/>
<path d="M111.697 48.9011L108.633 47.5009" stroke="black" stroke-miterlimit="10"/>
<path d="M121.099 52.4492L131.377 47.6153" stroke="black" stroke-miterlimit="10"/>
<path d="M111.729 48.2028L121.099 52.4492" stroke="black" stroke-miterlimit="10"/>
<path d="M11.3965 69.7248L93.2064 28.9663" stroke="black" stroke-miterlimit="10"/>
<path d="M95.6389 31.8163L95.5898 29.5272" stroke="black" stroke-miterlimit="10"/>
<path d="M93.0547 28.9777L95.5932 29.6835" stroke="black" stroke-miterlimit="10"/>
<path d="M11.4588 69.6866L11.3965 71.4187" stroke="black" stroke-miterlimit="10"/>
<path d="M13.4805 72.2771L11.2627 71.186" stroke="black" stroke-miterlimit="10"/>
<path d="M95.6383 31.8163L13.5479 72.2962" stroke="black" stroke-miterlimit="10"/>
<path d="M16.0021 120.281L15.8418 71.4454" stroke="black" stroke-miterlimit="10"/>
<path d="M20.9277 118.247L21.0165 68.6145" stroke="black" stroke-miterlimit="10"/>
<path d="M26.4453 116.466L26.5252 65.8942" stroke="black" stroke-miterlimit="10"/>
<path d="M30.8223 115.844L31.1028 63.6394" stroke="black" stroke-miterlimit="10"/>
<path d="M35.886 94.9971L35.7568 61.4151" stroke="black" stroke-miterlimit="10"/>
<path d="M40.9004 105.378L41.181 58.7444" stroke="black" stroke-miterlimit="10"/>
<path d="M45.9957 100.968L45.8398 56.5316" stroke="black" stroke-miterlimit="10"/>
<path d="M63.8096 98.3087L63.8586 47.4856" stroke="black" stroke-miterlimit="10"/>
<path d="M68.6725 97.0764L68.5479 45.1888" stroke="black" stroke-miterlimit="10"/>
<path d="M73.754 96.0043L73.4512 42.7814" stroke="black" stroke-miterlimit="10"/>
<path d="M78.1543 95.7106L78.5106 40.3892" stroke="black" stroke-miterlimit="10"/>
<path d="M83.3066 95.5007L83.3821 38.081" stroke="black" stroke-miterlimit="10"/>
<path d="M88.8997 94.9055C88.8061 75.2569 87.9154 55.036 88.1915 35.2615" stroke="black" stroke-miterlimit="10"/>
<path d="M94.4449 90.8651C95.0416 71.4416 94.151 51.9837 94.3247 32.4648" stroke="black" stroke-miterlimit="10"/>
<path d="M15.6191 71.392C17.6855 73.2691 21.5601 71.5446 20.9767 69.0189" stroke="black" stroke-miterlimit="10"/>
<path d="M26.5157 66.4551C26.7696 68.9617 23.1667 70.7587 21.0469 68.8358" stroke="black" stroke-miterlimit="10"/>
<path d="M30.8489 63.9828C31.94 66.1728 28.0967 68.3742 26.5469 66.1613" stroke="black" stroke-miterlimit="10"/>
<path d="M35.2897 61.7547C36.9108 64.0019 32.1901 66.5581 31.3439 63.6738C31.2549 63.7654 31.1658 63.8569 31.0723 63.9485" stroke="black" stroke-miterlimit="10"/>
<path d="M40.8516 59.042C41.5552 61.747 37.5338 64.4864 35.7568 61.4151" stroke="black" stroke-miterlimit="10"/>
<path d="M45.8401 56.5316C47.0425 59.4006 42.5089 62.3994 41.4668 58.4163" stroke="black" stroke-miterlimit="10"/>
<path d="M68.4501 45.4864C68.8197 47.5962 65.7602 49.1109 63.8096 47.7832" stroke="black" stroke-miterlimit="10"/>
<path d="M73.3087 42.9683C74.097 45.3262 70.5654 47.2605 68.6104 45.33" stroke="black" stroke-miterlimit="10"/>
<path d="M78.4435 40.5876C79.263 43.0828 75.5666 45.1735 73.5225 43.0484" stroke="black" stroke-miterlimit="10"/>
<path d="M83.338 38.1191C84.0015 40.5608 80.4878 42.5829 78.4971 40.4845" stroke="black" stroke-miterlimit="10"/>
<path d="M88.1299 35.6392C89.1853 38.3251 85.2841 40.8928 83.4805 37.9283" stroke="black" stroke-miterlimit="10"/>
<path d="M93.9193 32.8578C94.4804 35.4484 90.7974 37.5048 88.5039 35.5705" stroke="black" stroke-miterlimit="10"/>
<path d="M2.02637 152.917V52.2165" stroke="black" stroke-miterlimit="10"/>
<path d="M48.6895 105.317L63.9025 98.0493" stroke="black" stroke-miterlimit="10"/>
<path d="M46.4229 63.0633L63.8403 54.5743" stroke="black" stroke-miterlimit="10"/>
<path d="M99.6017 201.905L2.00879 152.909" stroke="#030303" stroke-miterlimit="10"/>
<path d="M102.447 2L201.933 50.801" stroke="#030303" stroke-miterlimit="10"/>
<path d="M202 151.719L201.934 50.801" stroke="#030303" stroke-miterlimit="10"/>
<path d="M102.447 2.00378L2.02637 52.2165" stroke="black" stroke-miterlimit="10"/>
<path d="M102.447 2C101.864 18.2339 101.904 34.4641 101.944 50.7095L102.447 2Z" fill="#030303" stroke="black" stroke-miterlimit="10"/>
<path d="M101.708 89.6595C101.997 76.6647 101.979 63.6814 101.944 50.7095L101.543 89.6748C101.596 89.671 101.65 89.6633 101.708 89.6595Z" fill="#030303" stroke="black" stroke-miterlimit="10"/>
<path opacity="0.9686" d="M202 151.719L99.6016 201.905" stroke="#030303" stroke-miterlimit="10"/>
<path d="M195.885 54.1967V148.911" stroke="black" stroke-miterlimit="10"/>
<path d="M102.426 7.73431L196.117 54.1317" stroke="black" stroke-miterlimit="10"/>
<path d="M6.43555 55.4557L102.105 7.79156" stroke="black" stroke-miterlimit="10"/>
<path d="M6.95251 150.212L6.40918 55.593" stroke="black" stroke-miterlimit="10"/>
<path d="M99.7402 196.376L6.80566 150.151" stroke="black" stroke-miterlimit="10"/>
<path d="M195.885 148.911L99.7393 196.376" stroke="black" stroke-miterlimit="10"/>
<path d="M195.885 54.1966L201.933 50.801" stroke="black" stroke-miterlimit="10"/>
<path d="M195.885 148.911L201.906 151.677" stroke="black" stroke-miterlimit="10"/>
<path d="M99.7529 196.128L99.499 202" stroke="black" stroke-miterlimit="10"/>
<path d="M2.17383 152.89L6.9791 150.307" stroke="black" stroke-miterlimit="10"/>
<path d="M45.8311 94.9818C50.3335 90.9376 57.1873 88.9193 63.6404 89.732" stroke="black" stroke-miterlimit="10"/>
<path d="M57.4993 80.6135C55.4552 81.0065 53.4155 81.3995 51.3714 81.7924C49.1491 77.8322 49.3094 73.1738 51.5807 69.5416C55.2548 72.3001 57.4815 76.4282 57.4993 80.6135Z" stroke="black" stroke-miterlimit="10"/>
<path d="M49.9102 73.7308C51.6114 73.4713 53.3171 73.2119 55.0183 72.9525" stroke="black" stroke-miterlimit="10"/>
<path d="M52.1149 81.6894C51.8655 82.4792 51.6162 83.2689 51.3623 84.0587" stroke="black" stroke-miterlimit="10"/>
<path d="M56.9648 80.8272C57.6329 81.5178 58.3009 82.2122 58.9689 82.9027C58.9689 82.9103 58.9689 82.918 58.9689 82.9218" stroke="black" stroke-miterlimit="10"/>
<path d="M51.3037 83.9137C53.9312 84.0358 56.59 83.6657 59.0438 82.8378" stroke="black" stroke-miterlimit="10"/>
<path d="M53.4909 84.0129C53.1168 84.9476 52.7471 85.8862 52.373 86.8209C52.9832 86.447 53.5933 86.0693 54.1811 85.8137C54.5241 86.6798 54.8625 87.542 55.2054 88.4081C55.5528 87.6908 55.9046 86.9697 56.2297 86.2944C56.773 86.653 57.3164 87.0155 57.8597 87.3741C57.8686 86.7599 57.8775 86.1456 57.971 85.4474C58.6702 85.6153 59.365 85.7832 60.0642 85.951C59.552 84.898 58.6658 83.9862 57.5524 83.3681" stroke="black" stroke-miterlimit="10"/>
<path d="M54.5771 83.8526C54.635 84.2265 54.6929 84.6004 54.7464 84.9743C55.0314 84.8179 55.3164 84.6577 55.6059 84.5012C55.8063 84.6424 56.0067 84.7874 56.2071 84.9286C56.3362 84.7073 56.4699 84.4898 56.599 84.2685C56.7549 84.3524 56.9063 84.4402 57.0622 84.5241C56.9063 84.2113 56.7504 83.8984 56.5945 83.5856" stroke="black" stroke-miterlimit="10"/>
<path d="M51.9189 82.0824C53.776 82.4029 55.7667 82.0977 57.3789 81.243" stroke="black" stroke-miterlimit="10"/>
<path d="M51.6787 83.0858C53.9054 83.3033 56.199 83.0019 58.252 82.2197" stroke="black" stroke-miterlimit="10"/>
<path d="M53.2364 75.3141C55.659 75.0509 56.336 78.229 53.9088 78.7021C51.4016 79.1637 50.3951 75.7223 53.2364 75.3141Z" stroke="black" stroke-miterlimit="10"/>
<path d="M57.6631 80.3045C59.2619 80.2854 60.8562 80.2701 62.455 80.251" stroke="black" stroke-miterlimit="10"/>
<path d="M51.1881 81.6169C49.7229 81.9565 48.2533 82.2961 46.7881 82.6318" stroke="black" stroke-miterlimit="10"/>
<path d="M56.9551 76.6037C58.113 76.5007 59.2842 76.5197 60.4421 76.6533C61.1547 77.8398 61.8628 79.0264 62.5041 80.274C62.5575 80.232 62.611 80.1862 62.6644 80.1481" stroke="black" stroke-miterlimit="10"/>
<path d="M49.8877 77.9276C49.0549 78.0573 48.2311 78.2481 47.5675 78.4236C47.2201 79.8314 46.8728 81.2354 46.5254 82.6433C46.7481 82.6662 46.9707 82.6852 47.1979 82.6929" stroke="black" stroke-miterlimit="10"/>
<path d="M81.7168 105.489C84.4957 101.266 87.2747 97.0459 90.0581 92.8224C96.7694 88.9499 105.227 88.6179 112.397 90.8193C124.581 105.939 135.59 121.277 145.165 137.415C139.246 137.442 133.328 137.469 127.409 137.491" stroke="black" stroke-miterlimit="10"/>
<path d="M145.009 137.35C141.17 142.402 137.327 147.453 133.176 152.94C127.427 153.184 121.673 153.424 115.924 153.668" stroke="black" stroke-miterlimit="10"/>
<path d="M127.605 137.789C123.869 143.134 120.128 148.483 116.392 153.828" stroke="black" stroke-miterlimit="10"/>
<path d="M119.411 149.498C124.724 149.7 130.042 149.903 135.355 150.105" stroke="black" stroke-miterlimit="10"/>
<path d="M81.9434 105.462C93.4466 121.376 104.954 137.285 116.458 153.199" stroke="black" stroke-miterlimit="10"/>
<path d="M83.9971 102.04C95.7854 117.839 107.578 133.638 119.366 149.437" stroke="black" stroke-miterlimit="10"/>
<path d="M112.811 148.346C112.058 149.571 111.301 150.795 110.54 151.925C110.036 151.234 109.533 150.547 109.025 149.857" stroke="black" stroke-miterlimit="10"/>
<path d="M110.37 144.817C109.916 146.534 109.466 148.251 109.012 149.964C109.065 150.006 109.119 150.048 109.168 150.093" stroke="black" stroke-miterlimit="10"/>
<path d="M85.3421 110.254C83.9304 110.407 82.5231 110.559 81.1113 110.712" stroke="black" stroke-miterlimit="10"/>
<path d="M82.336 106.13C81.6011 107.313 80.8663 108.495 80.2295 109.648C80.5991 109.991 80.9732 110.334 81.3429 110.678" stroke="black" stroke-miterlimit="10"/>
<path d="M90.945 92.2233C93.0471 92.4522 95.0244 93.6006 96.062 95.4091C93.341 99.3121 90.6244 103.215 87.9033 107.118" stroke="black" stroke-miterlimit="10"/>
<path d="M96.0352 95.3214C101.112 95.3786 106.189 95.4358 111.261 95.493" stroke="black" stroke-miterlimit="10"/>
<path d="M100.64 100.567C102.492 98.8657 103.592 96.3896 105.939 95.2794C105.712 95.4014 105.485 95.5274 105.258 95.6494" stroke="black" stroke-miterlimit="10"/>
<path d="M92.2002 101.082C95.0994 100.861 98.0031 100.64 100.76 100.64C108.433 111.613 116.106 122.581 123.78 133.554" stroke="black" stroke-miterlimit="10"/>
<path d="M110.433 94.5125C122.136 106.527 131.885 119.853 139.309 133.978" stroke="black" stroke-miterlimit="10"/>
<path d="M140.566 134.195C121.518 131.532 124.609 131.326 115.591 144.386C115.591 144.386 122.142 134.744 122.235 134.748C124.115 135.66 125.994 136.568 127.873 137.48" stroke="black" stroke-miterlimit="10"/>
<path d="M81.4724 151.635C82.6481 155.854 77.1124 160.906 71.6258 160.616C66.7537 157.85 66.3752 151.902 71.0646 147.346C75.812 145.607 80.5683 148.384 81.4724 151.635Z" stroke="black" stroke-miterlimit="10"/>
<path d="M76.6895 147.198C81.183 145.278 85.6765 143.356 90.1701 141.436" stroke="black" stroke-miterlimit="10"/>
<path d="M79.2676 148.354C83.0797 146.56 86.8919 144.771 90.7085 142.978C90.4769 142.402 90.2498 141.826 90.0182 141.253" stroke="black" stroke-miterlimit="10"/>
<path d="M86.7983 153.054C86.4866 153.126 86.1704 153.199 85.2842 153.401C85.5158 153.344 85.7473 153.291 86.7983 153.054Z" stroke="black" stroke-miterlimit="10"/>
<path d="M78.8535 158.392C82.924 158.54 86.9944 158.685 91.0604 158.834" stroke="black" stroke-miterlimit="10"/>
<path d="M80.043 156.919C84.5454 157.247 89.0478 157.575 93.5458 157.903" stroke="black" stroke-miterlimit="10"/>
<path d="M91.0869 158.899C91.893 158.556 92.6991 158.208 93.5051 157.865" stroke="black" stroke-miterlimit="10"/>
<path d="M81.3652 153.836C82.7191 153.687 84.0685 153.539 85.4223 153.39L85.0171 153.294" stroke="black" stroke-miterlimit="10"/>
<path d="M81.2275 152.348C82.9154 152.249 85.0931 151.974 87.1239 151.795C87.0304 152.241 86.9369 152.692 86.8434 153.138" stroke="black" stroke-miterlimit="10"/>
<path d="M35.958 117.976C37.2361 121.265 38.5187 124.554 39.5475 127.274C41.3511 129.083 45.2167 128.839 46.6908 126.82" stroke="black" stroke-miterlimit="10"/>
<path d="M46.0625 116.073C46.3297 119.701 46.5969 123.333 46.8686 126.961" stroke="black" stroke-miterlimit="10"/>
<path d="M35.9893 117.755C39.12 119.3 43.5111 118.587 45.7646 116.168" stroke="black" stroke-miterlimit="10"/>
<path d="M39.5909 115.214C38.5844 113.684 37.578 112.154 36.5715 110.628C35.5605 109.091 32.2383 109.617 31.9354 111.361C31.637 113.108 34.6342 114.44 39.5909 115.214Z" stroke="black" stroke-miterlimit="10"/>
<path d="M42.1299 114.882C41.7024 112.586 43.4125 110.132 45.9777 109.369C48.5429 108.606 51.6603 109.621 52.9874 111.647C49.1753 112.467 45.3631 113.288 42.1299 114.882Z" stroke="black" stroke-miterlimit="10"/>
<path d="M39.8945 113.478C40.4824 111.807 40.4289 110.033 40.5091 108.289C40.5848 106.546 40.8208 104.737 41.8986 103.257C42.9763 101.777 45.1006 100.728 47.0601 101.205C49.0197 101.685 50.1197 104.074 48.6946 105.321C45.7909 107.862 42.8873 110.403 40.7362 113.577C40.6071 113.707 40.4779 113.841 39.8945 113.478Z" stroke="black" stroke-miterlimit="10"/>
<path d="M38.3045 111.933C38.585 109.934 37.3381 108.007 35.8818 106.424C34.4255 104.84 32.6976 103.398 31.7134 101.567C30.7336 99.7356 30.7202 97.313 32.4571 95.9547C34.1939 94.5965 37.7433 95.4015 37.8057 97.416C37.9616 102.265 38.113 107.114 38.3045 111.933Z" stroke="black" stroke-miterlimit="10"/>
<path d="M38.5322 111.674C39.6411 113.944 40.7545 116.214 41.8634 118.484" stroke="black" stroke-miterlimit="10"/>
<path d="M40.4463 113.413C40.7269 114.787 41.0119 116.157 41.2925 117.53" stroke="black" stroke-miterlimit="10"/>
<path d="M42.4422 114.459C41.8321 115.394 41.2175 116.328 40.6074 117.259" stroke="black" stroke-miterlimit="10"/>
<path d="M38.9414 115.107C39.9167 116.21 40.8876 117.313 41.8629 118.415" stroke="black" stroke-miterlimit="10"/>
<path d="M35.8281 117.618C38.616 115.786 42.397 115.302 45.6257 116.355C45.5055 116.225 45.3852 116.092 45.265 115.962" stroke="black" stroke-miterlimit="10"/>
<path d="M159.054 107.481C155.242 106.321 151.426 105.161 148.29 104.184C145.516 104.291 143.365 107.05 144.313 109.285" stroke="black" stroke-miterlimit="10"/>
<path d="M154.588 115.477C151.083 113.425 147.578 111.372 144.073 109.32" stroke="black" stroke-miterlimit="10"/>
<path d="M159.237 107.641C155.888 108.805 153.84 112.208 154.681 115.218" stroke="black" stroke-miterlimit="10"/>
<path d="M159.357 111.636C161.384 111.899 163.41 112.158 165.436 112.421C167.472 112.685 169.035 110.117 167.614 108.839C166.193 107.561 163.121 108.766 159.357 111.636Z" stroke="black" stroke-miterlimit="10"/>
<path d="M158.102 113.555C160.48 114.676 161.683 117.343 160.81 119.545C159.937 121.746 157.082 123.23 154.401 122.875C155.991 119.796 157.581 116.721 158.102 113.555Z" stroke="black" stroke-miterlimit="10"/>
<path d="M160.769 112.906C161.945 114.333 163.61 115.39 165.169 116.515C166.728 117.641 168.247 118.911 168.946 120.552C169.649 122.189 169.302 124.272 167.659 125.298C166.011 126.324 163.134 125.599 162.867 123.871C162.319 120.346 161.767 116.82 160.168 113.417C160.119 113.246 160.074 113.078 160.769 112.906Z" stroke="black" stroke-miterlimit="10"/>
<path d="M163.17 112.788C164.84 114.207 167.374 114.55 169.73 114.543C172.081 114.535 174.473 114.253 176.762 114.718C179.051 115.184 181.287 116.664 181.469 118.671C181.652 120.681 178.726 122.581 176.833 121.387C172.277 118.503 167.721 115.622 163.17 112.788Z" stroke="black" stroke-miterlimit="10"/>
<path d="M163.267 113.097C160.493 112.448 157.723 111.803 154.948 111.155" stroke="black" stroke-miterlimit="10"/>
<path d="M160.489 113.322C159.055 112.669 157.617 112.017 156.183 111.361" stroke="black" stroke-miterlimit="10"/>
<path d="M158.297 114.024C157.816 113.036 157.331 112.048 156.85 111.059" stroke="black" stroke-miterlimit="10"/>
<path d="M159.857 111.262C158.244 111.239 156.628 111.22 155.016 111.197" stroke="black" stroke-miterlimit="10"/>
<path d="M159.46 107.614C159.429 110.621 157.55 113.475 154.593 115.008C154.789 115.008 154.98 115.008 155.176 115.004" stroke="black" stroke-miterlimit="10"/>
</svg>
